<svg xmlns="http://www.w3.org/2000/svg" xmlns:xlink="http://www.w3.org/1999/xlink" width="500" zoomAndPan="magnify" viewBox="0 0 375 374.999991" height="500" preserveAspectRatio="xMidYMid meet" version="1.0"><defs><clipPath id="a1d202c746"><path d="M 206 279 L 246 279 L 246 289.5 L 206 289.5 Z M 206 279 " clip-rule="nonzero"/></clipPath><clipPath id="a052d19c97"><path d="M 191 37.5 L 192 37.5 L 192 39 L 191 39 Z M 191 37.5 " clip-rule="nonzero"/></clipPath></defs><path fill="#a07a30" d="M 188.203125 110.554688 C 188.070312 110.554688 187.9375 110.492188 187.855469 110.375 C 187.714844 110.183594 187.757812 109.914062 187.953125 109.773438 L 197.125 103.164062 C 197.320312 103.023438 197.589844 103.066406 197.726562 103.257812 C 197.867188 103.453125 197.820312 103.722656 197.628906 103.863281 L 188.453125 110.472656 C 188.378906 110.527344 188.292969 110.554688 188.203125 110.554688 " fill-opacity="1" fill-rule="nonzero"/><path fill="#a07a30" d="M 189.714844 114.796875 C 189.507812 114.796875 189.328125 114.648438 189.292969 114.441406 C 189.25 114.203125 189.40625 113.980469 189.640625 113.941406 L 195.75 112.847656 C 195.980469 112.808594 196.210938 112.964844 196.25 113.199219 C 196.292969 113.433594 196.136719 113.65625 195.902344 113.699219 L 189.789062 114.789062 C 189.765625 114.792969 189.738281 114.796875 189.714844 114.796875 " fill-opacity="1" fill-rule="nonzero"/><path fill="#a07a30" d="M 184.148438 107.75 C 184.085938 107.75 184.027344 107.738281 183.964844 107.710938 C 183.75 107.609375 183.660156 107.351562 183.761719 107.136719 L 185.667969 103.109375 C 185.765625 102.894531 186.023438 102.800781 186.238281 102.902344 C 186.453125 103.003906 186.546875 103.261719 186.445312 103.476562 L 184.539062 107.507812 C 184.464844 107.660156 184.308594 107.75 184.148438 107.75 " fill-opacity="1" fill-rule="nonzero"/><path fill="#a07a30" d="M 186.800781 101.742188 C 186.746094 101.742188 186.691406 101.730469 186.632812 101.707031 C 186.414062 101.613281 186.316406 101.359375 186.40625 101.140625 L 186.957031 99.847656 C 187.050781 99.625 187.304688 99.527344 187.523438 99.621094 C 187.742188 99.714844 187.839844 99.964844 187.75 100.183594 L 187.199219 101.480469 C 187.128906 101.644531 186.96875 101.742188 186.800781 101.742188 " fill-opacity="1" fill-rule="nonzero"/><path fill="#a07a30" d="M 174.953125 190.785156 C 174.820312 190.785156 174.6875 190.726562 174.601562 190.605469 L 160.621094 170.988281 C 160.480469 170.796875 160.527344 170.527344 160.722656 170.386719 C 160.914062 170.25 161.183594 170.292969 161.320312 170.488281 L 175.304688 190.105469 C 175.441406 190.300781 175.394531 190.566406 175.203125 190.707031 C 175.128906 190.761719 175.039062 190.785156 174.953125 190.785156 " fill-opacity="1" fill-rule="nonzero"/><path fill="#a07a30" d="M 164.226562 206.351562 C 164.09375 206.351562 163.957031 206.289062 163.875 206.167969 L 156.324219 195.359375 C 156.1875 195.167969 156.238281 194.898438 156.429688 194.761719 C 156.625 194.625 156.894531 194.671875 157.03125 194.867188 L 164.582031 205.671875 C 164.71875 205.867188 164.671875 206.136719 164.472656 206.273438 C 164.398438 206.328125 164.3125 206.351562 164.226562 206.351562 " fill-opacity="1" fill-rule="nonzero"/><path fill="#a07a30" d="M 171.296875 185.480469 C 171.273438 185.480469 171.25 185.480469 171.222656 185.472656 L 140.644531 180.214844 C 140.414062 180.175781 140.253906 179.953125 140.292969 179.71875 C 140.335938 179.480469 140.558594 179.324219 140.792969 179.367188 L 171.371094 184.625 C 171.605469 184.664062 171.761719 184.886719 171.722656 185.121094 C 171.6875 185.332031 171.503906 185.480469 171.296875 185.480469 " fill-opacity="1" fill-rule="nonzero"/><path fill="#a07a30" d="M 180.875 166.90625 C 180.738281 166.90625 180.609375 166.847656 180.523438 166.726562 L 175.695312 160.003906 C 175.554688 159.8125 175.597656 159.542969 175.789062 159.40625 L 182.082031 154.773438 C 182.273438 154.632812 182.542969 154.675781 182.683594 154.867188 C 182.824219 155.058594 182.785156 155.328125 182.589844 155.46875 L 176.640625 159.847656 L 181.222656 166.226562 C 181.363281 166.417969 181.316406 166.6875 181.125 166.828125 C 181.050781 166.882812 180.960938 166.90625 180.875 166.90625 " fill-opacity="1" fill-rule="nonzero"/><path fill="#a07a30" d="M 179.71875 174.226562 C 179.695312 174.226562 179.667969 174.222656 179.644531 174.21875 L 141.726562 167.683594 C 141.496094 167.644531 141.335938 167.417969 141.375 167.183594 C 141.417969 166.949219 141.640625 166.792969 141.875 166.832031 L 179.789062 173.371094 C 180.023438 173.410156 180.179688 173.632812 180.140625 173.867188 C 180.105469 174.078125 179.921875 174.226562 179.71875 174.226562 " fill-opacity="1" fill-rule="nonzero"/><path fill="#a07a30" d="M 171.523438 185.472656 C 171.382812 185.472656 171.246094 185.40625 171.164062 185.28125 C 171.03125 185.082031 171.085938 184.816406 171.285156 184.683594 L 177.878906 180.316406 C 178.074219 180.183594 178.339844 180.238281 178.472656 180.4375 C 178.605469 180.636719 178.550781 180.902344 178.351562 181.035156 L 171.757812 185.402344 C 171.6875 185.453125 171.605469 185.472656 171.523438 185.472656 " fill-opacity="1" fill-rule="nonzero"/><path fill="#a07a30" d="M 131.636719 264.21875 C 131.355469 264.21875 131.082031 264.222656 130.816406 264.226562 C 126.503906 264.3125 125.226562 265.078125 125.152344 265.515625 C 124.917969 266.882812 131.746094 270.023438 143.394531 272.027344 C 148.503906 272.90625 153.367188 273.34375 157.09375 273.273438 C 161.40625 273.191406 162.683594 272.425781 162.757812 271.984375 C 162.832031 271.546875 161.886719 270.398438 157.847656 268.878906 C 154.359375 267.5625 149.625 266.355469 144.515625 265.476562 C 139.773438 264.660156 135.238281 264.21875 131.636719 264.21875 Z M 156.28125 274.144531 C 152.625 274.144531 148.039062 273.699219 143.25 272.878906 C 133.484375 271.199219 123.839844 268.078125 124.304688 265.371094 C 124.515625 264.121094 126.703125 263.445312 130.800781 263.363281 C 134.578125 263.292969 139.5 263.738281 144.664062 264.625 C 149.824219 265.511719 154.617188 266.734375 158.152344 268.070312 C 161.984375 269.515625 163.824219 270.882812 163.609375 272.132812 C 163.394531 273.382812 161.207031 274.058594 157.113281 274.136719 C 156.839844 274.144531 156.5625 274.144531 156.28125 274.144531 " fill-opacity="1" fill-rule="nonzero"/><path fill="#a07a30" d="M 144.0625 268.554688 C 144.039062 268.554688 144.015625 268.550781 143.992188 268.546875 C 143.757812 268.507812 143.601562 268.285156 143.640625 268.050781 L 170.132812 113.332031 C 170.171875 113.101562 170.394531 112.941406 170.628906 112.980469 C 170.863281 113.023438 171.019531 113.246094 170.976562 113.480469 L 144.488281 268.195312 C 144.453125 268.40625 144.269531 268.554688 144.0625 268.554688 " fill-opacity="1" fill-rule="nonzero"/><path fill="#a07a30" d="M 139.722656 272.121094 C 139.699219 272.121094 139.679688 272.117188 139.65625 272.113281 C 139.421875 272.078125 139.257812 271.859375 139.296875 271.621094 L 139.832031 268.117188 L 124.851562 265.542969 C 124.621094 265.503906 124.460938 265.28125 124.5 265.046875 C 124.542969 264.808594 124.761719 264.652344 125 264.695312 L 140.394531 267.34375 C 140.625 267.382812 140.78125 267.597656 140.746094 267.832031 L 140.148438 271.753906 C 140.117188 271.96875 139.929688 272.121094 139.722656 272.121094 " fill-opacity="1" fill-rule="nonzero"/><path fill="#a07a30" d="M 139.640625 272.179688 C 139.515625 272.179688 139.386719 272.121094 139.304688 272.015625 C 139.15625 271.832031 139.183594 271.558594 139.371094 271.410156 L 147.105469 265.191406 C 147.292969 265.042969 147.5625 265.074219 147.710938 265.257812 C 147.863281 265.445312 147.832031 265.714844 147.648438 265.867188 L 139.910156 272.082031 C 139.828125 272.148438 139.734375 272.179688 139.640625 272.179688 " fill-opacity="1" fill-rule="nonzero"/><path fill="#a07a30" d="M 153.59375 211.574219 C 153.519531 211.574219 153.445312 211.554688 153.375 211.515625 C 144.835938 206.464844 140.527344 197.226562 140.203125 183.277344 C 139.738281 163.203125 148.546875 130.855469 156.925781 109.292969 C 157.011719 109.070312 157.261719 108.960938 157.484375 109.050781 C 157.703125 109.136719 157.8125 109.386719 157.726562 109.609375 C 149.378906 131.089844 140.601562 163.300781 141.066406 183.257812 C 141.378906 196.882812 145.550781 205.886719 153.8125 210.773438 C 154.019531 210.890625 154.085938 211.15625 153.96875 211.363281 C 153.886719 211.5 153.742188 211.574219 153.59375 211.574219 " fill-opacity="1" fill-rule="nonzero"/><path fill="#a07a30" d="M 153.894531 211.625 C 153.691406 211.625 153.511719 211.484375 153.472656 211.277344 C 153.425781 211.042969 153.582031 210.816406 153.8125 210.773438 C 163.226562 208.925781 170.152344 201.832031 174.984375 189.089844 C 182.0625 170.433594 184.503906 137.132812 183.777344 114.089844 C 183.769531 113.851562 183.957031 113.652344 184.191406 113.644531 C 184.433594 113.636719 184.628906 113.824219 184.636719 114.058594 C 185.363281 137.1875 182.90625 170.628906 175.789062 189.398438 C 170.84375 202.441406 163.710938 209.710938 153.976562 211.617188 C 153.949219 211.625 153.921875 211.625 153.894531 211.625 " fill-opacity="1" fill-rule="nonzero"/><path fill="#a07a30" d="M 158.011719 109.621094 C 159.230469 110.277344 163.707031 111.558594 170.578125 112.742188 C 177.449219 113.921875 182.09375 114.207031 183.464844 113.996094 C 182.242188 113.339844 177.765625 112.058594 170.894531 110.878906 C 164.027344 109.695312 159.382812 109.410156 158.011719 109.621094 Z M 184.167969 114.117188 L 184.171875 114.117188 Z M 182.195312 114.921875 C 181.628906 114.921875 180.917969 114.894531 180.042969 114.832031 C 177.445312 114.648438 174.03125 114.210938 170.433594 113.589844 C 166.832031 112.96875 163.46875 112.246094 160.960938 111.550781 C 157.046875 110.464844 156.800781 109.90625 156.882812 109.425781 C 156.964844 108.945312 157.382812 108.503906 161.433594 108.785156 C 164.027344 108.96875 167.441406 109.40625 171.042969 110.027344 C 174.644531 110.648438 178.007812 111.371094 180.515625 112.066406 C 184.425781 113.152344 184.675781 113.710938 184.59375 114.191406 C 184.527344 114.566406 184.257812 114.921875 182.195312 114.921875 " fill-opacity="1" fill-rule="nonzero"/><path fill="#a07a30" d="M 175.203125 148.179688 C 174.714844 148.179688 174.203125 148.160156 173.65625 148.117188 C 171.953125 147.976562 167.269531 146.796875 164.46875 144.199219 C 163.921875 143.691406 163.371094 143.144531 162.789062 142.566406 C 159.53125 139.332031 155.472656 135.296875 148.863281 135.621094 C 148.636719 135.625 148.425781 135.449219 148.414062 135.210938 C 148.402344 134.976562 148.585938 134.773438 148.824219 134.757812 C 155.820312 134.429688 160.019531 138.601562 163.394531 141.953125 C 163.972656 142.523438 164.515625 143.066406 165.050781 143.5625 C 167.546875 145.875 171.933594 147.109375 173.726562 147.253906 C 177.515625 147.566406 179.738281 146.652344 182.3125 145.597656 C 182.609375 145.472656 182.914062 145.347656 183.226562 145.222656 C 183.449219 145.132812 183.699219 145.242188 183.785156 145.464844 C 183.875 145.6875 183.769531 145.9375 183.546875 146.023438 C 183.238281 146.152344 182.933594 146.273438 182.636719 146.394531 C 180.328125 147.34375 178.289062 148.179688 175.203125 148.179688 " fill-opacity="1" fill-rule="nonzero"/><path fill="#a07a30" d="M 181.726562 161.160156 C 181.703125 161.160156 181.679688 161.160156 181.65625 161.15625 L 144.085938 154.691406 C 143.851562 154.652344 143.695312 154.429688 143.734375 154.195312 C 143.773438 153.957031 143.996094 153.800781 144.230469 153.84375 L 181.800781 160.304688 C 182.035156 160.34375 182.191406 160.566406 182.152344 160.804688 C 182.113281 161.011719 181.933594 161.160156 181.726562 161.160156 " fill-opacity="1" fill-rule="nonzero"/><path fill="#a07a30" d="M 171.433594 197.914062 C 171.40625 197.914062 171.382812 197.910156 171.359375 197.90625 L 141.878906 192.835938 C 141.640625 192.796875 141.484375 192.574219 141.527344 192.335938 C 141.566406 192.101562 141.785156 191.945312 142.023438 191.984375 L 171.503906 197.054688 C 171.738281 197.097656 171.894531 197.320312 171.855469 197.554688 C 171.820312 197.765625 171.636719 197.914062 171.433594 197.914062 " fill-opacity="1" fill-rule="nonzero"/><path fill="#a07a30" d="M 153.753906 211.300781 C 153.609375 211.300781 153.472656 211.230469 153.390625 211.105469 L 141.488281 192.660156 C 141.359375 192.460938 141.414062 192.195312 141.613281 192.0625 C 141.8125 191.933594 142.078125 191.992188 142.210938 192.191406 L 154.113281 210.636719 C 154.242188 210.835938 154.1875 211.101562 153.984375 211.234375 C 153.914062 211.277344 153.832031 211.300781 153.753906 211.300781 " fill-opacity="1" fill-rule="nonzero"/><path fill="#a07a30" d="M 169.707031 173.058594 C 169.570312 173.058594 169.4375 172.992188 169.351562 172.875 C 169.214844 172.679688 169.261719 172.410156 169.457031 172.273438 L 172.238281 170.300781 C 172.433594 170.164062 172.703125 170.207031 172.839844 170.402344 C 172.976562 170.597656 172.929688 170.867188 172.734375 171.003906 L 169.953125 172.976562 C 169.878906 173.03125 169.792969 173.058594 169.707031 173.058594 " fill-opacity="1" fill-rule="nonzero"/><path fill="#a07a30" d="M 170.613281 174.34375 C 170.476562 174.34375 170.34375 174.28125 170.261719 174.160156 C 170.125 173.96875 170.167969 173.699219 170.363281 173.558594 L 173.148438 171.585938 C 173.34375 171.449219 173.609375 171.496094 173.746094 171.691406 C 173.886719 171.886719 173.839844 172.15625 173.644531 172.292969 L 170.859375 174.265625 C 170.785156 174.316406 170.699219 174.34375 170.613281 174.34375 " fill-opacity="1" fill-rule="nonzero"/><path fill="#a07a30" d="M 140.839844 180.324219 C 140.707031 180.324219 140.574219 180.261719 140.488281 180.140625 C 140.351562 179.949219 140.398438 179.679688 140.589844 179.539062 L 161.171875 164.949219 C 161.367188 164.808594 161.632812 164.855469 161.773438 165.050781 C 161.910156 165.246094 161.863281 165.515625 161.671875 165.652344 L 141.089844 180.242188 C 141.015625 180.296875 140.925781 180.324219 140.839844 180.324219 " fill-opacity="1" fill-rule="nonzero"/><path fill="#a07a30" d="M 140.980469 189.914062 C 140.84375 189.914062 140.710938 189.847656 140.628906 189.730469 C 140.488281 189.535156 140.535156 189.265625 140.730469 189.128906 L 151.636719 181.398438 C 151.828125 181.257812 152.097656 181.304688 152.234375 181.5 C 152.375 181.695312 152.328125 181.964844 152.132812 182.101562 L 141.226562 189.832031 C 141.152344 189.886719 141.066406 189.914062 140.980469 189.914062 " fill-opacity="1" fill-rule="nonzero"/><path fill="#a07a30" d="M 182.515625 149.949219 C 182.492188 149.949219 182.464844 149.945312 182.441406 149.941406 L 146.460938 143.75 C 146.226562 143.710938 146.070312 143.488281 146.109375 143.253906 C 146.152344 143.019531 146.375 142.863281 146.609375 142.902344 L 182.585938 149.089844 C 182.824219 149.132812 182.980469 149.355469 182.9375 149.589844 C 182.902344 149.796875 182.722656 149.949219 182.515625 149.949219 " fill-opacity="1" fill-rule="nonzero"/><path fill="#a07a30" d="M 162.875 157.929688 C 162.730469 157.929688 162.589844 157.859375 162.507812 157.726562 L 154.488281 145.011719 C 154.359375 144.808594 154.421875 144.542969 154.621094 144.417969 C 154.820312 144.289062 155.089844 144.347656 155.214844 144.550781 L 163.238281 157.269531 C 163.363281 157.46875 163.304688 157.734375 163.101562 157.863281 C 163.03125 157.90625 162.953125 157.929688 162.875 157.929688 " fill-opacity="1" fill-rule="nonzero"/><path fill="#a07a30" d="M 150.386719 157.40625 C 150.363281 157.40625 150.339844 157.402344 150.3125 157.398438 C 150.078125 157.359375 149.921875 157.136719 149.960938 156.898438 L 150.488281 153.828125 C 150.527344 153.59375 150.746094 153.433594 150.984375 153.476562 C 151.21875 153.515625 151.375 153.738281 151.335938 153.972656 L 150.808594 157.046875 C 150.773438 157.253906 150.59375 157.40625 150.386719 157.40625 " fill-opacity="1" fill-rule="nonzero"/><path fill="#a07a30" d="M 156.914062 195.328125 C 156.773438 195.328125 156.636719 195.261719 156.554688 195.136719 C 156.421875 194.9375 156.476562 194.671875 156.675781 194.539062 L 171.335938 184.738281 C 171.53125 184.605469 171.800781 184.660156 171.929688 184.859375 C 172.0625 185.054688 172.007812 185.324219 171.8125 185.457031 L 157.152344 195.257812 C 157.078125 195.304688 156.996094 195.328125 156.914062 195.328125 " fill-opacity="1" fill-rule="nonzero"/><path fill="#a07a30" d="M 154.570312 206.4375 C 154.425781 206.4375 154.289062 206.367188 154.207031 206.242188 L 145.816406 193.382812 C 145.6875 193.179688 145.742188 192.914062 145.941406 192.785156 C 146.140625 192.65625 146.40625 192.710938 146.535156 192.910156 L 154.925781 205.769531 C 155.058594 205.96875 155.003906 206.234375 154.800781 206.367188 C 154.730469 206.414062 154.648438 206.4375 154.570312 206.4375 " fill-opacity="1" fill-rule="nonzero"/><path fill="#a07a30" d="M 165.164062 144.542969 C 165.140625 144.542969 165.117188 144.542969 165.09375 144.535156 L 147.335938 141.480469 C 147.101562 141.441406 146.945312 141.21875 146.984375 140.984375 C 147.023438 140.75 147.246094 140.59375 147.480469 140.632812 L 165.238281 143.6875 C 165.472656 143.726562 165.628906 143.949219 165.589844 144.183594 C 165.550781 144.394531 165.371094 144.542969 165.164062 144.542969 " fill-opacity="1" fill-rule="nonzero"/><path fill="#a07a30" d="M 197.570312 188.269531 C 197.480469 188.269531 197.390625 188.238281 197.316406 188.183594 C 197.121094 188.042969 197.082031 187.769531 197.222656 187.578125 L 218.738281 158.453125 C 218.882812 158.261719 219.148438 158.21875 219.339844 158.363281 C 219.535156 158.503906 219.574219 158.773438 219.433594 158.964844 L 197.917969 188.09375 C 197.832031 188.207031 197.703125 188.269531 197.570312 188.269531 " fill-opacity="1" fill-rule="nonzero"/><path fill="#a07a30" d="M 189.605469 176.085938 C 189.515625 176.085938 189.421875 176.058594 189.347656 176 C 189.15625 175.855469 189.117188 175.585938 189.261719 175.394531 L 202.386719 157.886719 C 202.527344 157.699219 202.800781 157.660156 202.988281 157.800781 C 203.179688 157.945312 203.21875 158.214844 203.074219 158.40625 L 189.949219 175.914062 C 189.863281 176.027344 189.734375 176.085938 189.605469 176.085938 " fill-opacity="1" fill-rule="nonzero"/><path fill="#a07a30" d="M 225.125 218.664062 C 225.039062 218.664062 224.949219 218.636719 224.871094 218.582031 L 200.285156 200.4375 C 200.09375 200.296875 200.050781 200.027344 200.191406 199.835938 L 210.476562 185.683594 C 210.613281 185.492188 210.882812 185.449219 211.074219 185.589844 L 230.578125 199.699219 C 230.769531 199.839844 230.8125 200.109375 230.675781 200.304688 C 230.535156 200.496094 230.269531 200.539062 230.074219 200.398438 L 210.917969 186.539062 L 201.140625 199.996094 L 225.382812 217.886719 C 225.574219 218.027344 225.613281 218.296875 225.472656 218.488281 C 225.386719 218.601562 225.257812 218.664062 225.125 218.664062 " fill-opacity="1" fill-rule="nonzero"/><path fill="#a07a30" d="M 194.519531 201.433594 C 194.308594 201.433594 194.125 201.28125 194.09375 201.066406 C 194.058594 200.828125 194.222656 200.609375 194.457031 200.574219 L 200.648438 199.652344 L 225.113281 195.8125 C 225.351562 195.777344 225.566406 195.9375 225.605469 196.171875 C 225.640625 196.40625 225.480469 196.628906 225.246094 196.667969 L 200.777344 200.503906 L 194.582031 201.429688 C 194.5625 201.429688 194.539062 201.433594 194.519531 201.433594 " fill-opacity="1" fill-rule="nonzero"/><path fill="#a07a30" d="M 228.324219 175.957031 C 228.234375 175.957031 228.148438 175.929688 228.074219 175.878906 L 221.351562 171.050781 C 221.160156 170.914062 221.117188 170.648438 221.25 170.453125 L 225.738281 164.050781 C 225.875 163.855469 226.144531 163.808594 226.335938 163.945312 C 226.53125 164.082031 226.578125 164.351562 226.441406 164.546875 L 222.203125 170.601562 L 228.574219 175.175781 C 228.769531 175.3125 228.8125 175.582031 228.671875 175.777344 C 228.589844 175.894531 228.457031 175.957031 228.324219 175.957031 " fill-opacity="1" fill-rule="nonzero"/><path fill="#a07a30" d="M 191.546875 189.210938 C 191.339844 189.210938 191.15625 189.058594 191.125 188.847656 C 191.085938 188.613281 191.246094 188.390625 191.484375 188.355469 L 229.496094 182.40625 C 229.730469 182.371094 229.949219 182.527344 229.988281 182.765625 C 230.023438 183 229.859375 183.21875 229.625 183.257812 L 191.613281 189.207031 C 191.59375 189.210938 191.570312 189.210938 191.546875 189.210938 " fill-opacity="1" fill-rule="nonzero"/><path fill="#a07a30" d="M 225.382812 196.546875 C 225.289062 196.546875 225.195312 196.515625 225.117188 196.453125 C 224.929688 196.308594 224.898438 196.035156 225.042969 195.851562 L 229.898438 189.597656 C 230.039062 189.410156 230.3125 189.375 230.5 189.523438 C 230.6875 189.671875 230.722656 189.941406 230.574219 190.128906 L 225.722656 196.378906 C 225.636719 196.488281 225.511719 196.546875 225.382812 196.546875 " fill-opacity="1" fill-rule="nonzero"/><g clip-path="url(#a1d202c746)"><path fill="#a07a30" d="M 207.101562 287.21875 C 207.167969 287.660156 208.433594 288.445312 212.742188 288.589844 C 216.46875 288.722656 221.339844 288.347656 226.460938 287.546875 C 238.140625 285.714844 245.011719 282.675781 244.796875 281.304688 C 244.730469 280.867188 243.460938 280.082031 239.152344 279.929688 C 235.429688 279.800781 230.558594 280.175781 225.433594 280.976562 C 213.757812 282.8125 206.886719 285.847656 207.101562 287.21875 Z M 214.246094 289.480469 C 213.714844 289.480469 213.207031 289.472656 212.714844 289.453125 C 208.621094 289.3125 206.445312 288.605469 206.246094 287.355469 L 206.246094 287.351562 C 205.824219 284.636719 215.511719 281.660156 225.300781 280.125 C 230.476562 279.3125 235.40625 278.9375 239.183594 279.070312 C 243.277344 279.210938 245.453125 279.917969 245.648438 281.171875 C 246.074219 283.886719 236.382812 286.863281 226.59375 288.398438 C 222.09375 289.105469 217.777344 289.480469 214.246094 289.480469 " fill-opacity="1" fill-rule="nonzero"/></g><path fill="#a07a30" d="M 225.851562 284.0625 C 225.640625 284.0625 225.457031 283.914062 225.425781 283.699219 L 201.203125 128.613281 C 201.164062 128.375 201.328125 128.15625 201.558594 128.117188 C 201.800781 128.085938 202.015625 128.242188 202.054688 128.476562 L 226.273438 283.566406 C 226.3125 283.800781 226.152344 284.019531 225.917969 284.058594 C 225.894531 284.0625 225.871094 284.0625 225.851562 284.0625 " fill-opacity="1" fill-rule="nonzero"/><path fill="#a07a30" d="M 222.871094 288.832031 C 222.667969 288.832031 222.484375 288.683594 222.449219 288.476562 L 221.839844 284.984375 L 206.824219 287.339844 C 206.585938 287.375 206.371094 287.214844 206.332031 286.980469 C 206.296875 286.746094 206.457031 286.523438 206.691406 286.488281 L 222.125 284.066406 C 222.359375 284.03125 222.574219 284.1875 222.613281 284.417969 L 223.296875 288.328125 C 223.339844 288.5625 223.183594 288.785156 222.945312 288.824219 C 222.921875 288.832031 222.898438 288.832031 222.871094 288.832031 " fill-opacity="1" fill-rule="nonzero"/><path fill="#a07a30" d="M 222.8125 288.914062 C 222.734375 288.914062 222.652344 288.890625 222.582031 288.847656 C 222.382812 288.71875 222.324219 288.453125 222.453125 288.25 L 227.800781 279.878906 C 227.925781 279.679688 228.191406 279.621094 228.394531 279.75 C 228.59375 279.878906 228.652344 280.148438 228.527344 280.347656 L 223.175781 288.714844 C 223.09375 288.84375 222.957031 288.914062 222.8125 288.914062 " fill-opacity="1" fill-rule="nonzero"/><path fill="#a07a30" d="M 216.714844 227.019531 C 216.6875 227.019531 216.65625 227.015625 216.628906 227.007812 C 206.925781 224.957031 199.894531 217.585938 195.144531 204.472656 C 188.300781 185.597656 186.332031 152.125 187.398438 129.011719 C 187.410156 128.773438 187.617188 128.601562 187.851562 128.601562 C 188.085938 128.613281 188.273438 128.8125 188.261719 129.050781 C 187.195312 152.082031 189.152344 185.414062 195.953125 204.175781 C 200.597656 216.988281 207.417969 224.179688 216.804688 226.164062 C 217.039062 226.214844 217.1875 226.445312 217.136719 226.675781 C 217.09375 226.878906 216.914062 227.019531 216.714844 227.019531 " fill-opacity="1" fill-rule="nonzero"/><path fill="#a07a30" d="M 217.015625 226.972656 C 216.867188 226.972656 216.722656 226.894531 216.644531 226.753906 C 216.523438 226.546875 216.597656 226.285156 216.804688 226.167969 C 225.136719 221.402344 229.4375 212.464844 229.953125 198.839844 C 230.710938 178.894531 222.40625 146.558594 214.371094 124.953125 C 214.289062 124.730469 214.402344 124.484375 214.625 124.402344 C 214.847656 124.316406 215.097656 124.429688 215.179688 124.652344 C 223.242188 146.332031 231.574219 178.808594 230.816406 198.875 C 230.289062 212.816406 225.84375 221.992188 217.230469 226.914062 C 217.164062 226.953125 217.089844 226.972656 217.015625 226.972656 " fill-opacity="1" fill-rule="nonzero"/><path fill="#a07a30" d="M 214.328125 124.925781 Z M 188.53125 128.972656 C 189.898438 129.203125 194.550781 128.984375 201.433594 127.902344 C 208.320312 126.824219 212.816406 125.605469 214.046875 124.96875 C 212.679688 124.738281 208.03125 124.957031 201.144531 126.039062 C 194.257812 127.117188 189.765625 128.335938 188.53125 128.972656 Z M 190.074219 129.914062 C 187.75 129.914062 187.460938 129.542969 187.398438 129.148438 C 187.324219 128.671875 187.582031 128.117188 191.511719 127.085938 C 194.027344 126.425781 197.402344 125.75 201.011719 125.183594 C 204.621094 124.617188 208.039062 124.226562 210.636719 124.085938 C 214.691406 123.863281 215.105469 124.3125 215.179688 124.792969 C 215.253906 125.269531 214.996094 125.824219 211.070312 126.855469 C 208.554688 127.515625 205.179688 128.191406 201.570312 128.757812 C 197.957031 129.324219 194.539062 129.714844 191.945312 129.855469 C 191.207031 129.898438 190.589844 129.914062 190.074219 129.914062 " fill-opacity="1" fill-rule="nonzero"/><path fill="#a07a30" d="M 211.90625 160.804688 C 209.925781 160.804688 207.597656 160.535156 205.675781 159.667969 C 204.996094 159.363281 204.300781 159.023438 203.566406 158.660156 C 199.445312 156.640625 194.320312 154.125 188.15625 156.542969 C 187.9375 156.628906 187.6875 156.519531 187.597656 156.296875 C 187.511719 156.074219 187.621094 155.824219 187.84375 155.738281 C 194.363281 153.183594 199.671875 155.789062 203.941406 157.886719 C 204.671875 158.242188 205.359375 158.582031 206.027344 158.882812 C 209.128906 160.273438 213.679688 160.039062 215.425781 159.601562 C 219.117188 158.679688 220.929688 157.105469 223.03125 155.28125 C 223.277344 155.066406 223.523438 154.851562 223.777344 154.636719 C 223.957031 154.480469 224.230469 154.5 224.386719 154.683594 C 224.539062 154.863281 224.519531 155.136719 224.335938 155.289062 C 224.085938 155.507812 223.839844 155.722656 223.59375 155.933594 C 221.410156 157.828125 219.523438 159.46875 215.632812 160.441406 C 214.890625 160.625 213.511719 160.804688 211.90625 160.804688 " fill-opacity="1" fill-rule="nonzero"/><path fill="#a07a30" d="M 189.640625 176.148438 C 189.433594 176.148438 189.25 175.996094 189.214844 175.78125 C 189.179688 175.546875 189.339844 175.324219 189.574219 175.289062 L 227.234375 169.378906 C 227.472656 169.347656 227.691406 169.503906 227.726562 169.738281 C 227.761719 169.976562 227.601562 170.195312 227.367188 170.234375 L 189.707031 176.140625 C 189.683594 176.144531 189.664062 176.148438 189.640625 176.148438 " fill-opacity="1" fill-rule="nonzero"/><path fill="#a07a30" d="M 199.707031 213 C 199.5 213 199.316406 212.847656 199.28125 212.632812 C 199.246094 212.398438 199.40625 212.175781 199.640625 212.140625 L 229.195312 207.503906 C 229.4375 207.472656 229.648438 207.628906 229.6875 207.863281 C 229.722656 208.097656 229.5625 208.320312 229.328125 208.355469 L 199.777344 212.992188 C 199.75 212.996094 199.730469 213 199.707031 213 " fill-opacity="1" fill-rule="nonzero"/><path fill="#a07a30" d="M 216.777344 226.710938 C 216.683594 226.710938 216.589844 226.679688 216.507812 226.617188 L 199.351562 212.953125 C 199.164062 212.804688 199.132812 212.53125 199.277344 212.347656 C 199.425781 212.160156 199.699219 212.128906 199.882812 212.277344 L 217.042969 225.941406 C 217.230469 226.089844 217.261719 226.359375 217.113281 226.546875 C 217.03125 226.652344 216.902344 226.710938 216.777344 226.710938 " fill-opacity="1" fill-rule="nonzero"/><path fill="#a07a30" d="M 219.699219 185.363281 C 219.613281 185.363281 219.523438 185.332031 219.449219 185.277344 C 219.253906 185.136719 219.210938 184.867188 219.351562 184.675781 L 221.363281 181.914062 C 221.5 181.722656 221.769531 181.679688 221.964844 181.820312 C 222.15625 181.960938 222.199219 182.230469 222.058594 182.421875 L 220.050781 185.183594 C 219.964844 185.300781 219.832031 185.363281 219.699219 185.363281 " fill-opacity="1" fill-rule="nonzero"/><path fill="#a07a30" d="M 220.96875 186.289062 C 220.882812 186.289062 220.792969 186.261719 220.71875 186.207031 C 220.523438 186.066406 220.480469 185.796875 220.621094 185.601562 L 222.632812 182.84375 C 222.773438 182.648438 223.042969 182.609375 223.234375 182.746094 C 223.425781 182.886719 223.46875 183.160156 223.328125 183.351562 L 221.320312 186.113281 C 221.234375 186.230469 221.105469 186.289062 220.96875 186.289062 " fill-opacity="1" fill-rule="nonzero"/><path fill="#a07a30" d="M 189.320312 173.667969 C 189.230469 173.667969 189.136719 173.640625 189.0625 173.582031 C 188.871094 173.4375 188.832031 173.167969 188.980469 172.976562 L 201.042969 157.046875 C 201.1875 156.855469 201.460938 156.820312 201.648438 156.960938 C 201.839844 157.105469 201.875 157.378906 201.730469 157.566406 L 189.664062 173.5 C 189.578125 173.613281 189.449219 173.667969 189.320312 173.667969 " fill-opacity="1" fill-rule="nonzero"/><path fill="#a07a30" d="M 194.496094 201.714844 C 194.410156 201.714844 194.320312 201.6875 194.242188 201.632812 C 194.050781 201.492188 194.007812 201.222656 194.148438 201.03125 L 209.167969 180.386719 C 209.308594 180.195312 209.578125 180.152344 209.769531 180.292969 C 209.960938 180.433594 210.003906 180.703125 209.863281 180.894531 L 194.84375 201.535156 C 194.761719 201.652344 194.628906 201.714844 194.496094 201.714844 " fill-opacity="1" fill-rule="nonzero"/><path fill="#a07a30" d="M 218.316406 159.679688 C 218.105469 159.679688 217.921875 159.527344 217.890625 159.316406 C 217.855469 159.082031 218.015625 158.859375 218.246094 158.820312 L 224.464844 157.847656 C 224.703125 157.8125 224.917969 157.96875 224.957031 158.207031 C 224.992188 158.441406 224.832031 158.664062 224.597656 158.699219 L 218.382812 159.675781 C 218.359375 159.679688 218.335938 159.679688 218.316406 159.679688 " fill-opacity="1" fill-rule="nonzero"/><path fill="#a07a30" d="M 203.011719 158.292969 C 202.800781 158.292969 202.621094 158.140625 202.585938 157.925781 C 202.550781 157.691406 202.710938 157.46875 202.945312 157.433594 L 223.578125 154.195312 C 223.820312 154.164062 224.035156 154.320312 224.070312 154.554688 C 224.105469 154.792969 223.945312 155.011719 223.710938 155.050781 L 203.078125 158.285156 C 203.058594 158.289062 203.035156 158.292969 203.011719 158.292969 " fill-opacity="1" fill-rule="nonzero"/><path fill="#a07a30" d="M 191.558594 56.941406 C 191.320312 56.941406 191.125 56.746094 191.125 56.507812 L 191.125 51.828125 C 191.125 50.246094 189.84375 48.960938 188.261719 48.960938 C 188.023438 48.960938 187.832031 48.765625 187.832031 48.527344 C 187.832031 48.289062 188.023438 48.097656 188.261719 48.097656 C 190.316406 48.097656 191.988281 49.769531 191.988281 51.828125 L 191.988281 56.507812 C 191.988281 56.746094 191.792969 56.941406 191.558594 56.941406 " fill-opacity="1" fill-rule="nonzero"/><path fill="#a07a30" d="M 188.261719 48.980469 C 188.023438 48.980469 187.832031 48.789062 187.832031 48.550781 C 187.832031 48.3125 188.023438 48.117188 188.261719 48.117188 C 189.84375 48.117188 191.125 46.832031 191.125 45.246094 L 191.125 40.570312 C 191.125 40.332031 191.320312 40.136719 191.558594 40.136719 C 191.792969 40.136719 191.988281 40.332031 191.988281 40.570312 L 191.988281 45.246094 C 191.988281 47.304688 190.316406 48.980469 188.261719 48.980469 " fill-opacity="1" fill-rule="nonzero"/><path fill="#a07a30" d="M 191.558594 56.941406 C 191.320312 56.941406 191.125 56.746094 191.125 56.507812 L 191.125 51.828125 C 191.125 49.769531 192.796875 48.097656 194.851562 48.097656 C 195.089844 48.097656 195.28125 48.289062 195.28125 48.527344 C 195.28125 48.765625 195.089844 48.960938 194.851562 48.960938 C 193.273438 48.960938 191.988281 50.246094 191.988281 51.828125 L 191.988281 56.507812 C 191.988281 56.746094 191.792969 56.941406 191.558594 56.941406 " fill-opacity="1" fill-rule="nonzero"/><path fill="#a07a30" d="M 194.851562 48.980469 C 192.796875 48.980469 191.125 47.304688 191.125 45.246094 L 191.125 40.570312 C 191.125 40.332031 191.320312 40.136719 191.558594 40.136719 C 191.792969 40.136719 191.988281 40.332031 191.988281 40.570312 L 191.988281 45.246094 C 191.988281 46.832031 193.273438 48.117188 194.851562 48.117188 C 195.089844 48.117188 195.28125 48.3125 195.28125 48.550781 C 195.28125 48.789062 195.089844 48.980469 194.851562 48.980469 " fill-opacity="1" fill-rule="nonzero"/><path fill="#a07a30" d="M 186.113281 48.929688 L 185.167969 48.929688 C 184.933594 48.929688 184.738281 48.738281 184.738281 48.5 C 184.738281 48.261719 184.933594 48.066406 185.167969 48.066406 L 186.113281 48.066406 C 186.351562 48.066406 186.546875 48.261719 186.546875 48.5 C 186.546875 48.738281 186.351562 48.929688 186.113281 48.929688 " fill-opacity="1" fill-rule="nonzero"/><path fill="#a07a30" d="M 197.863281 48.929688 L 196.921875 48.929688 C 196.683594 48.929688 196.488281 48.738281 196.488281 48.5 C 196.488281 48.261719 196.683594 48.066406 196.921875 48.066406 L 197.863281 48.066406 C 198.105469 48.066406 198.296875 48.261719 198.296875 48.5 C 198.296875 48.738281 198.105469 48.929688 197.863281 48.929688 " fill-opacity="1" fill-rule="nonzero"/><g clip-path="url(#a052d19c97)"><path fill="#a07a30" d="M 191.519531 38.902344 C 191.28125 38.902344 191.085938 38.710938 191.085938 38.46875 L 191.085938 37.929688 C 191.085938 37.691406 191.28125 37.5 191.519531 37.5 C 191.753906 37.5 191.949219 37.691406 191.949219 37.929688 L 191.949219 38.46875 C 191.949219 38.710938 191.753906 38.902344 191.519531 38.902344 " fill-opacity="1" fill-rule="nonzero"/></g><path fill="#a07a30" d="M 191.519531 59.753906 C 191.28125 59.753906 191.085938 59.5625 191.085938 59.320312 L 191.085938 58.78125 C 191.085938 58.546875 191.28125 58.351562 191.519531 58.351562 C 191.753906 58.351562 191.949219 58.546875 191.949219 58.78125 L 191.949219 59.320312 C 191.949219 59.5625 191.753906 59.753906 191.519531 59.753906 " fill-opacity="1" fill-rule="nonzero"/><path fill="#a07a30" d="M 206.984375 104.378906 C 206.746094 104.378906 206.554688 104.183594 206.554688 103.945312 L 206.554688 89.40625 C 206.554688 89.167969 206.746094 88.972656 206.984375 88.972656 C 207.222656 88.972656 207.414062 89.167969 207.414062 89.40625 L 207.414062 103.945312 C 207.414062 104.183594 207.222656 104.378906 206.984375 104.378906 " fill-opacity="1" fill-rule="nonzero"/><path fill="#a07a30" d="M 214.507812 97.105469 L 199.84375 97.105469 C 199.605469 97.105469 199.410156 96.914062 199.410156 96.675781 C 199.410156 96.4375 199.605469 96.246094 199.84375 96.246094 L 214.507812 96.246094 C 214.746094 96.246094 214.9375 96.4375 214.9375 96.675781 C 214.9375 96.914062 214.746094 97.105469 214.507812 97.105469 " fill-opacity="1" fill-rule="nonzero"/><path fill="#a07a30" d="M 210.632812 100.75 C 210.527344 100.75 210.414062 100.710938 210.332031 100.625 L 208.222656 98.511719 C 208.054688 98.34375 208.054688 98.070312 208.222656 97.902344 C 208.394531 97.734375 208.664062 97.734375 208.832031 97.902344 L 210.941406 100.015625 C 211.109375 100.183594 211.109375 100.457031 210.941406 100.625 C 210.855469 100.710938 210.746094 100.75 210.632812 100.75 " fill-opacity="1" fill-rule="nonzero"/><path fill="#a07a30" d="M 205.429688 95.535156 C 205.324219 95.535156 205.210938 95.496094 205.128906 95.410156 L 203.15625 93.433594 C 202.988281 93.265625 202.988281 92.992188 203.15625 92.824219 C 203.324219 92.65625 203.597656 92.65625 203.765625 92.824219 L 205.738281 94.800781 C 205.90625 94.96875 205.90625 95.242188 205.738281 95.410156 C 205.652344 95.496094 205.542969 95.535156 205.429688 95.535156 " fill-opacity="1" fill-rule="nonzero"/><path fill="#a07a30" d="M 203.460938 100.75 C 203.351562 100.75 203.238281 100.710938 203.15625 100.625 C 202.988281 100.457031 202.988281 100.183594 203.15625 100.015625 L 205.179688 97.988281 C 205.347656 97.816406 205.621094 97.816406 205.789062 97.988281 C 205.957031 98.15625 205.957031 98.425781 205.789062 98.59375 L 203.765625 100.625 C 203.679688 100.710938 203.574219 100.75 203.460938 100.75 " fill-opacity="1" fill-rule="nonzero"/><path fill="#a07a30" d="M 208.570312 95.628906 C 208.460938 95.628906 208.351562 95.585938 208.265625 95.5 C 208.097656 95.332031 208.097656 95.058594 208.265625 94.890625 L 210.332031 92.824219 C 210.5 92.65625 210.773438 92.65625 210.941406 92.824219 C 211.109375 92.992188 211.109375 93.265625 210.941406 93.433594 L 208.875 95.5 C 208.792969 95.585938 208.683594 95.628906 208.570312 95.628906 " fill-opacity="1" fill-rule="nonzero"/><path fill="#a07a30" d="M 220.742188 86.171875 C 220.738281 86.171875 220.730469 86.171875 220.722656 86.171875 L 219.113281 86.089844 C 218.878906 86.078125 218.695312 85.875 218.707031 85.636719 C 218.71875 85.398438 218.929688 85.21875 219.15625 85.230469 L 220.476562 85.296875 L 221.117188 83.941406 C 221.21875 83.726562 221.476562 83.636719 221.691406 83.738281 C 221.90625 83.839844 221.996094 84.097656 221.898438 84.3125 L 221.132812 85.925781 C 221.0625 86.078125 220.910156 86.171875 220.742188 86.171875 " fill-opacity="1" fill-rule="nonzero"/><path fill="#a07a30" d="M 223.035156 86.933594 C 222.984375 86.933594 222.929688 86.925781 222.878906 86.90625 L 221.382812 86.316406 C 221.21875 86.25 221.109375 86.097656 221.109375 85.921875 L 221.078125 84.136719 C 221.074219 83.894531 221.261719 83.699219 221.5 83.695312 L 221.507812 83.695312 C 221.742188 83.695312 221.933594 83.882812 221.9375 84.121094 L 221.964844 85.617188 L 223.191406 86.101562 C 223.414062 86.1875 223.523438 86.4375 223.4375 86.660156 C 223.367188 86.832031 223.207031 86.933594 223.035156 86.933594 " fill-opacity="1" fill-rule="nonzero"/><path fill="#a07a30" d="M 220.65625 88.503906 C 220.59375 88.503906 220.53125 88.488281 220.472656 88.460938 C 220.257812 88.359375 220.167969 88.101562 220.265625 87.886719 L 221.03125 86.273438 C 221.105469 86.113281 221.277344 86.019531 221.441406 86.027344 L 223.050781 86.109375 C 223.285156 86.121094 223.46875 86.324219 223.457031 86.5625 C 223.445312 86.800781 223.246094 86.976562 223.007812 86.96875 L 221.6875 86.902344 L 221.046875 88.257812 C 220.972656 88.414062 220.816406 88.503906 220.65625 88.503906 " fill-opacity="1" fill-rule="nonzero"/><path fill="#a07a30" d="M 220.65625 88.503906 C 220.421875 88.503906 220.230469 88.316406 220.226562 88.078125 L 220.199219 86.582031 L 218.972656 86.097656 C 218.75 86.007812 218.640625 85.757812 218.726562 85.539062 C 218.816406 85.316406 219.0625 85.207031 219.285156 85.292969 L 220.785156 85.882812 C 220.945312 85.945312 221.054688 86.101562 221.054688 86.277344 L 221.085938 88.0625 C 221.089844 88.300781 220.902344 88.5 220.664062 88.503906 C 220.660156 88.503906 220.65625 88.503906 220.65625 88.503906 " fill-opacity="1" fill-rule="nonzero"/><path fill="#a07a30" d="M 161.851562 59.585938 C 161.640625 59.585938 161.472656 59.757812 161.472656 59.964844 C 161.472656 60.175781 161.640625 60.34375 161.851562 60.34375 C 162.058594 60.34375 162.230469 60.175781 162.230469 59.964844 C 162.230469 59.757812 162.058594 59.585938 161.851562 59.585938 Z M 161.851562 61.207031 C 161.167969 61.207031 160.613281 60.648438 160.613281 59.964844 C 160.613281 59.28125 161.167969 58.722656 161.851562 58.722656 C 162.53125 58.722656 163.089844 59.28125 163.089844 59.964844 C 163.089844 60.648438 162.53125 61.207031 161.851562 61.207031 " fill-opacity="1" fill-rule="nonzero"/><path fill="#a07a30" d="M 200.679688 68.839844 C 200.027344 68.839844 199.492188 69.375 199.492188 70.03125 C 199.492188 70.6875 200.027344 71.21875 200.679688 71.21875 C 201.335938 71.21875 201.867188 70.6875 201.867188 70.03125 C 201.867188 69.375 201.335938 68.839844 200.679688 68.839844 Z M 200.679688 72.082031 C 199.550781 72.082031 198.632812 71.164062 198.632812 70.03125 C 198.632812 68.898438 199.550781 67.980469 200.679688 67.980469 C 201.8125 67.980469 202.730469 68.898438 202.730469 70.03125 C 202.730469 71.164062 201.8125 72.082031 200.679688 72.082031 " fill-opacity="1" fill-rule="nonzero"/><path fill="#a07a30" d="M 177.941406 76.453125 C 177.707031 76.453125 177.511719 76.257812 177.511719 76.023438 L 177.511719 60.277344 C 177.511719 60.042969 177.707031 59.847656 177.941406 59.847656 C 178.179688 59.847656 178.371094 60.042969 178.371094 60.277344 L 178.371094 76.023438 C 178.371094 76.257812 178.179688 76.453125 177.941406 76.453125 " fill-opacity="1" fill-rule="nonzero"/><path fill="#a07a30" d="M 177.941406 57.304688 C 177.707031 57.304688 177.511719 57.109375 177.511719 56.871094 L 177.511719 56.472656 C 177.511719 56.234375 177.707031 56.042969 177.941406 56.042969 C 178.179688 56.042969 178.371094 56.234375 178.371094 56.472656 L 178.371094 56.871094 C 178.371094 57.109375 178.179688 57.304688 177.941406 57.304688 " fill-opacity="1" fill-rule="nonzero"/><path fill="#a07a30" d="M 177.941406 95.390625 C 177.707031 95.390625 177.511719 95.195312 177.511719 94.957031 L 177.511719 79.214844 C 177.511719 78.976562 177.707031 78.785156 177.941406 78.785156 C 178.179688 78.785156 178.371094 78.976562 178.371094 79.214844 L 178.371094 94.957031 C 178.371094 95.195312 178.179688 95.390625 177.941406 95.390625 " fill-opacity="1" fill-rule="nonzero"/><path fill="#a07a30" d="M 177.941406 99.195312 C 177.707031 99.195312 177.511719 99.003906 177.511719 98.765625 L 177.511719 98.363281 C 177.511719 98.128906 177.707031 97.933594 177.941406 97.933594 C 178.179688 97.933594 178.371094 98.128906 178.371094 98.363281 L 178.371094 98.765625 C 178.371094 99.003906 178.179688 99.195312 177.941406 99.195312 " fill-opacity="1" fill-rule="nonzero"/><path fill="#a07a30" d="M 176.347656 78.050781 L 160.640625 78.050781 C 160.40625 78.050781 160.210938 77.855469 160.210938 77.617188 C 160.210938 77.382812 160.40625 77.1875 160.640625 77.1875 L 176.347656 77.1875 C 176.585938 77.1875 176.777344 77.382812 176.777344 77.617188 C 176.777344 77.855469 176.585938 78.050781 176.347656 78.050781 " fill-opacity="1" fill-rule="nonzero"/><path fill="#a07a30" d="M 157.242188 78.050781 L 156.84375 78.050781 C 156.605469 78.050781 156.414062 77.855469 156.414062 77.617188 C 156.414062 77.382812 156.605469 77.1875 156.84375 77.1875 L 157.242188 77.1875 C 157.480469 77.1875 157.671875 77.382812 157.671875 77.617188 C 157.671875 77.855469 157.480469 78.050781 157.242188 78.050781 " fill-opacity="1" fill-rule="nonzero"/><path fill="#a07a30" d="M 195.242188 78.050781 L 179.535156 78.050781 C 179.300781 78.050781 179.105469 77.855469 179.105469 77.617188 C 179.105469 77.382812 179.300781 77.1875 179.535156 77.1875 L 195.242188 77.1875 C 195.480469 77.1875 195.671875 77.382812 195.671875 77.617188 C 195.671875 77.855469 195.480469 78.050781 195.242188 78.050781 " fill-opacity="1" fill-rule="nonzero"/><path fill="#a07a30" d="M 199.042969 78.050781 L 198.644531 78.050781 C 198.40625 78.050781 198.210938 77.855469 198.210938 77.617188 C 198.210938 77.382812 198.40625 77.1875 198.644531 77.1875 L 199.042969 77.1875 C 199.277344 77.1875 199.472656 77.382812 199.472656 77.617188 C 199.472656 77.855469 199.277344 78.050781 199.042969 78.050781 " fill-opacity="1" fill-rule="nonzero"/><path fill="#a07a30" d="M 179.070312 76.921875 C 178.960938 76.921875 178.847656 76.878906 178.765625 76.792969 C 178.597656 76.625 178.597656 76.351562 178.765625 76.183594 L 185.875 69.058594 C 186.042969 68.890625 186.316406 68.890625 186.484375 69.058594 C 186.652344 69.226562 186.652344 69.5 186.484375 69.667969 L 179.375 76.792969 C 179.289062 76.878906 179.179688 76.921875 179.070312 76.921875 " fill-opacity="1" fill-rule="nonzero"/><path fill="#a07a30" d="M 187.882812 68.085938 C 187.773438 68.085938 187.664062 68.042969 187.578125 67.960938 C 187.410156 67.792969 187.410156 67.519531 187.578125 67.351562 L 188.914062 66.011719 C 189.082031 65.84375 189.355469 65.84375 189.523438 66.011719 C 189.691406 66.179688 189.691406 66.453125 189.523438 66.621094 L 188.1875 67.960938 C 188.105469 68.042969 187.996094 68.085938 187.882812 68.085938 " fill-opacity="1" fill-rule="nonzero"/><path fill="#a07a30" d="M 169.707031 86.304688 C 169.59375 86.304688 169.484375 86.265625 169.402344 86.179688 C 169.234375 86.011719 169.234375 85.738281 169.402344 85.570312 L 176.511719 78.445312 C 176.679688 78.273438 176.949219 78.273438 177.117188 78.445312 C 177.289062 78.609375 177.289062 78.882812 177.117188 79.054688 L 170.011719 86.179688 C 169.925781 86.265625 169.816406 86.304688 169.707031 86.304688 " fill-opacity="1" fill-rule="nonzero"/><path fill="#a07a30" d="M 166.664062 89.351562 C 166.554688 89.351562 166.445312 89.3125 166.363281 89.226562 C 166.191406 89.058594 166.191406 88.785156 166.363281 88.617188 L 167.695312 87.277344 C 167.867188 87.109375 168.136719 87.109375 168.304688 87.277344 C 168.472656 87.445312 168.472656 87.71875 168.304688 87.886719 L 166.96875 89.226562 C 166.886719 89.3125 166.777344 89.351562 166.664062 89.351562 " fill-opacity="1" fill-rule="nonzero"/><path fill="#a07a30" d="M 186.179688 86.304688 C 186.070312 86.304688 185.960938 86.265625 185.875 86.179688 L 178.765625 79.054688 C 178.597656 78.882812 178.597656 78.609375 178.765625 78.445312 C 178.933594 78.273438 179.207031 78.273438 179.375 78.445312 L 186.484375 85.570312 C 186.652344 85.738281 186.652344 86.011719 186.484375 86.179688 C 186.402344 86.265625 186.289062 86.304688 186.179688 86.304688 " fill-opacity="1" fill-rule="nonzero"/><path fill="#a07a30" d="M 189.21875 89.351562 C 189.109375 89.351562 189 89.3125 188.914062 89.226562 L 187.578125 87.886719 C 187.410156 87.71875 187.410156 87.445312 187.578125 87.277344 C 187.746094 87.109375 188.019531 87.109375 188.1875 87.277344 L 189.523438 88.617188 C 189.691406 88.785156 189.691406 89.058594 189.523438 89.226562 C 189.441406 89.3125 189.328125 89.351562 189.21875 89.351562 " fill-opacity="1" fill-rule="nonzero"/><path fill="#a07a30" d="M 176.816406 76.921875 C 176.703125 76.921875 176.59375 76.878906 176.511719 76.792969 L 169.402344 69.667969 C 169.234375 69.5 169.234375 69.226562 169.402344 69.058594 C 169.570312 68.890625 169.84375 68.890625 170.011719 69.058594 L 177.117188 76.183594 C 177.289062 76.351562 177.289062 76.625 177.117188 76.792969 C 177.035156 76.878906 176.925781 76.921875 176.816406 76.921875 " fill-opacity="1" fill-rule="nonzero"/><path fill="#a07a30" d="M 168 68.085938 C 167.890625 68.085938 167.78125 68.042969 167.695312 67.960938 L 166.363281 66.621094 C 166.191406 66.453125 166.191406 66.179688 166.363281 66.011719 C 166.53125 65.84375 166.800781 65.84375 166.96875 66.011719 L 168.304688 67.351562 C 168.472656 67.519531 168.472656 67.792969 168.304688 67.960938 C 168.222656 68.042969 168.113281 68.085938 168 68.085938 " fill-opacity="1" fill-rule="nonzero"/><path fill="#a07a30" d="M 172.5 75.882812 C 172.445312 75.882812 172.390625 75.871094 172.339844 75.847656 L 168.171875 74.191406 C 167.953125 74.101562 167.84375 73.851562 167.933594 73.628906 C 168.019531 73.40625 168.269531 73.296875 168.492188 73.386719 L 172.65625 75.046875 C 172.878906 75.136719 172.988281 75.386719 172.898438 75.609375 C 172.832031 75.777344 172.667969 75.882812 172.5 75.882812 " fill-opacity="1" fill-rule="nonzero"/><path fill="#a07a30" d="M 166.691406 73.566406 C 166.640625 73.566406 166.585938 73.558594 166.535156 73.535156 L 165.699219 73.207031 C 165.480469 73.117188 165.371094 72.867188 165.457031 72.644531 C 165.546875 72.421875 165.800781 72.3125 166.015625 72.402344 L 166.851562 72.734375 C 167.074219 72.820312 167.179688 73.070312 167.09375 73.296875 C 167.027344 73.464844 166.863281 73.566406 166.691406 73.566406 " fill-opacity="1" fill-rule="nonzero"/><path fill="#a07a30" d="M 187.554688 81.878906 C 187.5 81.878906 187.445312 81.871094 187.394531 81.847656 L 183.226562 80.191406 C 183.007812 80.101562 182.898438 79.851562 182.988281 79.628906 C 183.074219 79.40625 183.328125 79.300781 183.546875 79.386719 L 187.710938 81.046875 C 187.933594 81.136719 188.042969 81.386719 187.953125 81.605469 C 187.886719 81.777344 187.726562 81.878906 187.554688 81.878906 " fill-opacity="1" fill-rule="nonzero"/><path fill="#a07a30" d="M 190.023438 82.867188 C 189.972656 82.867188 189.917969 82.855469 189.867188 82.835938 L 189.035156 82.503906 C 188.8125 82.417969 188.703125 82.164062 188.792969 81.941406 C 188.878906 81.722656 189.132812 81.613281 189.351562 81.699219 L 190.183594 82.035156 C 190.40625 82.121094 190.511719 82.375 190.425781 82.59375 C 190.359375 82.761719 190.195312 82.867188 190.023438 82.867188 " fill-opacity="1" fill-rule="nonzero"/><path fill="#a07a30" d="M 168.445312 82.152344 C 168.277344 82.152344 168.121094 82.058594 168.046875 81.890625 C 167.953125 81.675781 168.054688 81.421875 168.273438 81.328125 L 172.390625 79.546875 C 172.609375 79.453125 172.863281 79.554688 172.957031 79.773438 C 173.050781 79.992188 172.949219 80.246094 172.730469 80.339844 L 168.613281 82.117188 C 168.558594 82.140625 168.5 82.152344 168.445312 82.152344 " fill-opacity="1" fill-rule="nonzero"/><path fill="#a07a30" d="M 166 83.207031 C 165.835938 83.207031 165.675781 83.109375 165.605469 82.949219 C 165.511719 82.730469 165.613281 82.476562 165.832031 82.378906 L 166.65625 82.023438 C 166.875 81.929688 167.125 82.03125 167.222656 82.25 C 167.3125 82.46875 167.214844 82.722656 166.996094 82.816406 L 166.171875 83.175781 C 166.117188 83.195312 166.058594 83.207031 166 83.207031 " fill-opacity="1" fill-rule="nonzero"/><path fill="#a07a30" d="M 183.324219 75.726562 C 183.15625 75.726562 183 75.628906 182.925781 75.464844 C 182.835938 75.246094 182.933594 74.992188 183.152344 74.898438 L 187.269531 73.117188 C 187.488281 73.027344 187.742188 73.125 187.835938 73.34375 C 187.929688 73.566406 187.828125 73.816406 187.613281 73.910156 L 183.492188 75.691406 C 183.4375 75.714844 183.378906 75.726562 183.324219 75.726562 " fill-opacity="1" fill-rule="nonzero"/><path fill="#a07a30" d="M 189.0625 73.25 C 188.894531 73.25 188.734375 73.152344 188.664062 72.988281 C 188.570312 72.769531 188.671875 72.515625 188.890625 72.417969 L 189.714844 72.066406 C 189.929688 71.972656 190.1875 72.070312 190.28125 72.289062 C 190.371094 72.507812 190.273438 72.761719 190.054688 72.855469 L 189.230469 73.210938 C 189.175781 73.238281 189.117188 73.25 189.0625 73.25 " fill-opacity="1" fill-rule="nonzero"/><path fill="#a07a30" d="M 174.121094 87.683594 C 174.066406 87.683594 174.015625 87.675781 173.960938 87.652344 C 173.742188 87.5625 173.632812 87.3125 173.71875 87.09375 L 175.378906 82.917969 C 175.464844 82.695312 175.71875 82.585938 175.9375 82.675781 C 176.15625 82.761719 176.265625 83.011719 176.175781 83.234375 L 174.519531 87.410156 C 174.453125 87.582031 174.292969 87.683594 174.121094 87.683594 " fill-opacity="1" fill-rule="nonzero"/><path fill="#a07a30" d="M 173.136719 90.160156 C 173.085938 90.160156 173.03125 90.152344 172.980469 90.132812 C 172.757812 90.042969 172.648438 89.789062 172.738281 89.570312 L 173.070312 88.734375 C 173.15625 88.511719 173.410156 88.40625 173.628906 88.492188 C 173.847656 88.582031 173.957031 88.832031 173.867188 89.054688 L 173.539062 89.890625 C 173.46875 90.058594 173.308594 90.160156 173.136719 90.160156 " fill-opacity="1" fill-rule="nonzero"/><path fill="#a07a30" d="M 180.109375 72.59375 C 180.054688 72.59375 180 72.582031 179.949219 72.5625 C 179.726562 72.476562 179.621094 72.222656 179.707031 72.003906 L 181.363281 67.824219 C 181.453125 67.605469 181.703125 67.496094 181.925781 67.582031 C 182.144531 67.671875 182.25 67.921875 182.164062 68.144531 L 180.507812 72.320312 C 180.441406 72.488281 180.277344 72.59375 180.109375 72.59375 " fill-opacity="1" fill-rule="nonzero"/><path fill="#a07a30" d="M 182.414062 66.773438 C 182.363281 66.773438 182.308594 66.765625 182.257812 66.746094 C 182.035156 66.65625 181.929688 66.40625 182.015625 66.183594 L 182.347656 65.347656 C 182.433594 65.128906 182.6875 65.019531 182.90625 65.105469 C 183.128906 65.195312 183.234375 65.445312 183.148438 65.667969 L 182.816406 66.503906 C 182.75 66.671875 182.585938 66.773438 182.414062 66.773438 " fill-opacity="1" fill-rule="nonzero"/><path fill="#a07a30" d="M 182.035156 87.570312 C 181.871094 87.570312 181.710938 87.472656 181.640625 87.308594 L 179.867188 83.183594 C 179.773438 82.964844 179.871094 82.707031 180.089844 82.613281 C 180.308594 82.519531 180.5625 82.621094 180.65625 82.839844 L 182.429688 86.96875 C 182.527344 87.1875 182.425781 87.441406 182.207031 87.535156 C 182.148438 87.558594 182.09375 87.570312 182.035156 87.570312 " fill-opacity="1" fill-rule="nonzero"/><path fill="#a07a30" d="M 183.089844 90.019531 C 182.925781 90.019531 182.765625 89.921875 182.695312 89.757812 L 182.339844 88.933594 C 182.246094 88.714844 182.347656 88.460938 182.5625 88.367188 C 182.78125 88.273438 183.035156 88.371094 183.128906 88.59375 L 183.484375 89.414062 C 183.578125 89.636719 183.480469 89.890625 183.261719 89.984375 C 183.203125 90.007812 183.144531 90.019531 183.089844 90.019531 " fill-opacity="1" fill-rule="nonzero"/><path fill="#a07a30" d="M 175.625 72.65625 C 175.457031 72.65625 175.300781 72.558594 175.226562 72.394531 L 173.453125 68.269531 C 173.359375 68.050781 173.460938 67.796875 173.675781 67.703125 C 173.894531 67.609375 174.148438 67.710938 174.242188 67.929688 L 176.019531 72.054688 C 176.113281 72.273438 176.011719 72.527344 175.792969 72.621094 C 175.738281 72.648438 175.679688 72.65625 175.625 72.65625 " fill-opacity="1" fill-rule="nonzero"/><path fill="#a07a30" d="M 173.152344 66.90625 C 172.984375 66.90625 172.824219 66.808594 172.757812 66.644531 L 172.402344 65.820312 C 172.304688 65.601562 172.40625 65.347656 172.625 65.253906 C 172.84375 65.160156 173.097656 65.261719 173.191406 65.480469 L 173.546875 66.304688 C 173.640625 66.523438 173.539062 66.777344 173.320312 66.871094 C 173.265625 66.898438 173.207031 66.90625 173.152344 66.90625 " fill-opacity="1" fill-rule="nonzero"/><path fill="#a07a30" d="M 158.460938 96.648438 C 158.378906 96.648438 158.292969 96.625 158.21875 96.574219 L 157.398438 96.003906 C 157.203125 95.867188 157.15625 95.597656 157.289062 95.402344 C 157.425781 95.207031 157.695312 95.160156 157.890625 95.292969 L 158.707031 95.863281 C 158.902344 96 158.953125 96.265625 158.816406 96.464844 C 158.734375 96.585938 158.597656 96.648438 158.460938 96.648438 " fill-opacity="1" fill-rule="nonzero"/><path fill="#a07a30" d="M 156.402344 95.214844 C 156.316406 95.214844 156.230469 95.1875 156.15625 95.136719 L 155.328125 94.558594 C 155.132812 94.425781 155.085938 94.15625 155.21875 93.960938 C 155.355469 93.765625 155.625 93.714844 155.820312 93.851562 L 156.648438 94.429688 C 156.84375 94.566406 156.890625 94.832031 156.757812 95.03125 C 156.671875 95.148438 156.539062 95.214844 156.402344 95.214844 " fill-opacity="1" fill-rule="nonzero"/><path fill="#a07a30" d="M 156.015625 97.089844 C 155.929688 97.089844 155.84375 97.066406 155.769531 97.015625 C 155.574219 96.878906 155.527344 96.609375 155.660156 96.414062 L 156.222656 95.601562 C 156.359375 95.40625 156.628906 95.359375 156.824219 95.496094 C 157.019531 95.628906 157.066406 95.898438 156.929688 96.09375 L 156.371094 96.90625 C 156.285156 97.027344 156.152344 97.089844 156.015625 97.089844 " fill-opacity="1" fill-rule="nonzero"/><path fill="#a07a30" d="M 157.441406 95.035156 C 157.355469 95.035156 157.269531 95.007812 157.195312 94.957031 C 157 94.820312 156.953125 94.550781 157.085938 94.359375 L 157.667969 93.519531 C 157.804688 93.320312 158.070312 93.273438 158.269531 93.410156 C 158.464844 93.546875 158.511719 93.816406 158.375 94.011719 L 157.796875 94.851562 C 157.710938 94.96875 157.578125 95.035156 157.441406 95.035156 " fill-opacity="1" fill-rule="nonzero"/><path fill="#a07a30" d="M 215.96875 65.75 C 215.734375 65.75 215.539062 65.554688 215.539062 65.316406 L 215.539062 61.371094 C 215.539062 61.132812 215.734375 60.9375 215.96875 60.9375 C 216.207031 60.9375 216.402344 61.132812 216.402344 61.371094 L 216.402344 65.316406 C 216.402344 65.554688 216.207031 65.75 215.96875 65.75 Z M 217.582031 66.378906 C 217.472656 66.378906 217.363281 66.335938 217.28125 66.253906 C 217.195312 66.167969 217.152344 66.058594 217.152344 65.945312 C 217.152344 65.835938 217.191406 65.726562 217.273438 65.644531 L 219.222656 63.65625 C 219.390625 63.488281 219.664062 63.484375 219.832031 63.652344 C 219.917969 63.734375 219.960938 63.847656 219.960938 63.957031 C 219.960938 64.066406 219.921875 64.175781 219.835938 64.261719 L 217.886719 66.25 C 217.804688 66.335938 217.691406 66.378906 217.582031 66.378906 Z M 214.3125 66.414062 C 214.203125 66.414062 214.097656 66.375 214.011719 66.292969 L 212.035156 64.339844 C 211.949219 64.257812 211.90625 64.144531 211.90625 64.03125 C 211.90625 63.921875 211.945312 63.8125 212.027344 63.730469 C 212.195312 63.558594 212.46875 63.558594 212.636719 63.722656 L 214.617188 65.675781 C 214.703125 65.761719 214.746094 65.875 214.746094 65.984375 C 214.746094 66.09375 214.703125 66.203125 214.621094 66.289062 C 214.535156 66.375 214.425781 66.414062 214.3125 66.414062 Z M 213.550781 68.03125 L 209.753906 68.03125 C 209.515625 68.03125 209.320312 67.839844 209.320312 67.601562 C 209.320312 67.363281 209.515625 67.171875 209.753906 67.171875 L 213.550781 67.171875 C 213.789062 67.171875 213.980469 67.363281 213.980469 67.601562 C 213.980469 67.839844 213.789062 68.03125 213.550781 68.03125 Z M 222.1875 68.03125 L 218.390625 68.03125 C 218.152344 68.03125 217.960938 67.839844 217.960938 67.601562 C 217.960938 67.363281 218.152344 67.171875 218.390625 67.171875 L 222.1875 67.171875 C 222.425781 67.171875 222.621094 67.363281 222.621094 67.601562 C 222.621094 67.839844 222.425781 68.03125 222.1875 68.03125 Z M 219.605469 71.601562 C 219.496094 71.601562 219.386719 71.558594 219.304688 71.476562 L 217.507812 69.710938 C 217.421875 69.625 217.378906 69.511719 217.378906 69.402344 C 217.378906 69.292969 217.421875 69.183594 217.503906 69.097656 C 217.667969 68.929688 217.941406 68.925781 218.109375 69.09375 L 219.90625 70.863281 C 219.992188 70.945312 220.035156 71.058594 220.035156 71.167969 C 220.035156 71.277344 219.996094 71.390625 219.914062 71.472656 C 219.828125 71.558594 219.71875 71.601562 219.605469 71.601562 Z M 212.410156 71.675781 C 212.300781 71.675781 212.191406 71.632812 212.109375 71.550781 C 212.023438 71.46875 211.980469 71.355469 211.980469 71.246094 C 211.980469 71.136719 212.019531 71.027344 212.101562 70.941406 L 213.863281 69.148438 C 214.03125 68.980469 214.304688 68.976562 214.472656 69.140625 C 214.558594 69.226562 214.601562 69.339844 214.601562 69.449219 C 214.601562 69.558594 214.5625 69.667969 214.480469 69.753906 L 212.71875 71.546875 C 212.632812 71.632812 212.523438 71.675781 212.410156 71.675781 Z M 215.96875 74.265625 C 215.734375 74.265625 215.539062 74.070312 215.539062 73.835938 L 215.539062 70.265625 C 215.539062 70.027344 215.734375 69.835938 215.96875 69.835938 C 216.207031 69.835938 216.402344 70.027344 216.402344 70.265625 L 216.402344 73.835938 C 216.402344 74.070312 216.207031 74.265625 215.96875 74.265625 " fill-opacity="1" fill-rule="nonzero"/><path fill="#a07a30" d="M 214.171875 69.882812 C 214.0625 69.882812 213.953125 69.839844 213.871094 69.757812 C 213.785156 69.671875 213.742188 69.5625 213.742188 69.449219 C 213.742188 69.339844 213.78125 69.230469 213.863281 69.148438 L 214.167969 68.839844 C 214.332031 68.667969 214.605469 68.667969 214.777344 68.835938 C 214.863281 68.917969 214.90625 69.03125 214.90625 69.144531 C 214.90625 69.253906 214.863281 69.359375 214.78125 69.445312 L 214.480469 69.753906 C 214.394531 69.839844 214.285156 69.882812 214.171875 69.882812 " fill-opacity="1" fill-rule="nonzero"/><path fill="#a07a30" d="M 214.460938 66.5625 C 214.355469 66.5625 214.246094 66.523438 214.160156 66.441406 L 214.011719 66.292969 C 213.925781 66.207031 213.882812 66.097656 213.882812 65.984375 C 213.882812 65.875 213.925781 65.765625 214.007812 65.679688 C 214.175781 65.511719 214.445312 65.507812 214.617188 65.675781 L 214.765625 65.824219 C 214.851562 65.90625 214.894531 66.019531 214.894531 66.132812 C 214.890625 66.242188 214.851562 66.351562 214.769531 66.433594 C 214.683594 66.519531 214.574219 66.5625 214.460938 66.5625 " fill-opacity="1" fill-rule="nonzero"/><path fill="#a07a30" d="M 217.296875 66.667969 C 217.1875 66.667969 217.078125 66.625 216.992188 66.542969 C 216.910156 66.460938 216.867188 66.347656 216.867188 66.238281 C 216.867188 66.125 216.90625 66.019531 216.988281 65.933594 L 217.273438 65.644531 C 217.441406 65.472656 217.714844 65.472656 217.882812 65.636719 C 217.96875 65.722656 218.011719 65.835938 218.011719 65.945312 C 218.011719 66.054688 217.96875 66.164062 217.886719 66.25 L 217.601562 66.539062 C 217.515625 66.625 217.40625 66.667969 217.296875 66.667969 " fill-opacity="1" fill-rule="nonzero"/></svg>