<svg xmlns="http://www.w3.org/2000/svg" xmlns:xlink="http://www.w3.org/1999/xlink" width="500" zoomAndPan="magnify" viewBox="0 0 375 374.999991" height="500" preserveAspectRatio="xMidYMid meet" version="1.0"><defs><g/><clipPath id="522ff1aa1c"><path d="M 127.492188 103.300781 L 247.492188 103.300781 L 247.492188 223.300781 L 127.492188 223.300781 Z M 127.492188 103.300781 " clip-rule="nonzero"/></clipPath><clipPath id="ec40d714ea"><path d="M 153.226562 79 L 221.476562 79 L 221.476562 104.5 L 153.226562 104.5 Z M 153.226562 79 " clip-rule="nonzero"/></clipPath></defs><g clip-path="url(#522ff1aa1c)"><path fill="#e4b344" d="M 187.496094 103.300781 C 154.410156 103.300781 127.492188 130.21875 127.492188 163.308594 C 127.492188 196.394531 154.410156 223.3125 187.496094 223.3125 C 220.585938 223.3125 247.503906 196.394531 247.503906 163.308594 C 247.503906 130.21875 220.585938 103.300781 187.496094 103.300781 Z M 207.929688 164.589844 L 207.929688 167.722656 L 167.066406 167.722656 L 167.066406 164.589844 L 172.746094 164.589844 L 172.746094 163.164062 L 167.066406 163.164062 L 167.066406 128.085938 L 172.746094 128.085938 L 172.746094 126.660156 L 167.066406 126.660156 L 167.066406 123.898438 L 207.929688 123.898438 L 207.929688 126.660156 L 202.246094 126.660156 L 202.246094 128.085938 L 207.929688 128.085938 L 207.929688 163.164062 L 202.246094 163.164062 L 202.246094 164.589844 Z M 165.640625 159.824219 L 129.023438 159.824219 C 129.078125 158.890625 129.152344 157.964844 129.25 157.046875 L 165.640625 157.046875 Z M 195.257812 119.792969 L 195.257812 122.472656 L 179.734375 122.472656 L 179.734375 119.792969 Z M 209.355469 157.046875 L 245.742188 157.046875 C 245.839844 157.96875 245.917969 158.890625 245.972656 159.824219 L 209.355469 159.824219 Z M 187.496094 104.726562 C 217.191406 104.726562 241.792969 126.941406 245.570312 155.621094 L 209.355469 155.621094 L 209.355469 128.085938 L 212.46875 128.085938 L 212.46875 126.660156 L 209.355469 126.660156 L 209.355469 123.898438 L 212.46875 123.898438 L 212.46875 122.472656 L 196.683594 122.472656 L 196.683594 119.792969 L 198.933594 119.792969 L 198.933594 118.367188 L 176.0625 118.367188 L 176.0625 119.792969 L 178.3125 119.792969 L 178.3125 122.472656 L 162.527344 122.472656 L 162.527344 123.898438 L 165.640625 123.898438 L 165.640625 126.660156 L 162.527344 126.660156 L 162.527344 128.085938 L 165.640625 128.085938 L 165.640625 155.621094 L 129.421875 155.621094 C 133.199219 126.941406 157.800781 104.726562 187.496094 104.726562 Z M 128.957031 161.25 L 165.640625 161.25 L 165.640625 163.164062 L 162.523438 163.164062 L 162.523438 164.589844 L 165.640625 164.589844 L 165.640625 167.722656 L 162.523438 167.722656 L 162.523438 169.148438 L 165.640625 169.148438 L 165.640625 217.65625 C 163.085938 216.625 160.621094 215.421875 158.261719 214.058594 L 158.261719 171.09375 C 158.261719 169.234375 156.75 167.722656 154.894531 167.722656 C 153.035156 167.722656 151.523438 169.234375 151.523438 171.09375 L 151.523438 209.511719 C 150.296875 208.550781 149.105469 207.542969 147.957031 206.492188 L 147.957031 171.09375 C 147.957031 169.234375 146.445312 167.722656 144.589844 167.722656 C 142.730469 167.722656 141.21875 169.234375 141.21875 171.09375 L 141.21875 199.1875 C 139.941406 197.546875 138.75 195.832031 137.652344 194.054688 L 137.652344 171.09375 C 137.652344 169.234375 136.140625 167.722656 134.28125 167.722656 C 132.425781 167.722656 130.914062 169.234375 130.914062 171.09375 L 130.914062 178.503906 C 129.617188 173.65625 128.917969 168.5625 128.917969 163.308594 C 128.917969 162.621094 128.933594 161.9375 128.957031 161.25 Z M 156.835938 213.203125 C 155.507812 212.378906 154.210938 211.507812 152.953125 210.585938 L 152.953125 171.09375 C 152.953125 170.023438 153.824219 169.148438 154.898438 169.148438 C 155.96875 169.148438 156.839844 170.019531 156.839844 171.09375 L 156.839844 213.203125 Z M 136.226562 191.621094 C 134.714844 188.890625 133.414062 186.03125 132.347656 183.058594 L 132.347656 171.09375 C 132.347656 170.023438 133.214844 169.148438 134.289062 169.148438 C 135.359375 169.148438 136.230469 170.019531 136.230469 171.09375 L 136.230469 191.621094 Z M 142.429688 200.6875 L 142.652344 200.6875 L 142.652344 171.09375 C 142.652344 170.023438 143.519531 169.148438 144.59375 169.148438 C 145.667969 169.148438 146.535156 170.019531 146.535156 171.09375 L 146.535156 205.136719 C 145.089844 203.726562 143.71875 202.242188 142.429688 200.6875 Z M 175.976562 220.746094 C 174.664062 220.484375 173.371094 220.175781 172.09375 219.828125 L 172.09375 177.054688 C 172.09375 175.984375 172.964844 175.109375 174.035156 175.109375 C 175.109375 175.109375 175.980469 175.980469 175.980469 177.054688 L 175.980469 220.746094 Z M 177.402344 221.015625 L 177.402344 177.054688 C 177.402344 175.195312 175.890625 173.683594 174.035156 173.683594 C 172.175781 173.683594 170.664062 175.195312 170.664062 177.054688 L 170.664062 219.421875 C 169.445312 219.054688 168.246094 218.648438 167.0625 218.207031 L 167.0625 169.152344 L 207.929688 169.152344 L 207.929688 218.210938 C 206.746094 218.652344 205.542969 219.054688 204.324219 219.421875 L 204.324219 177.054688 C 204.324219 175.195312 202.8125 173.683594 200.957031 173.683594 C 199.101562 173.683594 197.589844 175.195312 197.589844 177.054688 L 197.589844 221.015625 C 194.308594 221.589844 190.9375 221.886719 187.492188 221.886719 C 184.058594 221.886719 180.683594 221.589844 177.402344 221.015625 Z M 202.898438 219.828125 C 201.621094 220.175781 200.328125 220.484375 199.015625 220.746094 L 199.015625 177.054688 C 199.015625 175.984375 199.886719 175.109375 200.960938 175.109375 C 202.03125 175.109375 202.902344 175.980469 202.902344 177.054688 L 202.902344 219.828125 Z M 221.976562 210.636719 C 220.71875 211.554688 219.421875 212.421875 218.09375 213.242188 L 218.09375 171.09375 C 218.09375 170.023438 218.964844 169.148438 220.035156 169.148438 C 221.109375 169.148438 221.980469 170.019531 221.980469 171.09375 L 221.980469 210.636719 Z M 228.398438 205.203125 L 228.398438 171.09375 C 228.398438 170.023438 229.265625 169.148438 230.339844 169.148438 C 231.414062 169.148438 232.28125 170.019531 232.28125 171.09375 L 232.28125 200.6875 L 232.566406 200.6875 C 231.253906 202.265625 229.863281 203.773438 228.398438 205.203125 Z M 242.625 183.121094 C 241.546875 186.113281 240.230469 188.992188 238.699219 191.738281 L 238.699219 171.09375 C 238.699219 170.023438 239.570312 169.152344 240.640625 169.152344 C 241.714844 169.152344 242.585938 170.023438 242.585938 171.09375 L 242.585938 183.125 L 242.625 183.125 Z M 244.007812 178.742188 L 244.007812 171.09375 C 244.007812 169.234375 242.496094 167.722656 240.640625 167.722656 C 238.78125 167.722656 237.269531 169.234375 237.269531 171.09375 L 237.269531 194.15625 C 236.167969 195.925781 234.980469 197.632812 233.703125 199.269531 L 233.703125 171.09375 C 233.703125 169.234375 232.191406 167.722656 230.332031 167.722656 C 228.476562 167.722656 226.964844 169.234375 226.964844 171.09375 L 226.964844 206.554688 C 225.816406 207.601562 224.625 208.605469 223.398438 209.5625 L 223.398438 171.09375 C 223.398438 169.234375 221.886719 167.722656 220.027344 167.722656 C 218.171875 167.722656 216.660156 169.234375 216.660156 171.09375 L 216.660156 214.09375 C 214.320312 215.445312 211.875 216.632812 209.347656 217.65625 L 209.347656 169.152344 L 212.464844 169.152344 L 212.464844 167.726562 L 209.355469 167.726562 L 209.355469 164.59375 L 212.46875 164.59375 L 212.46875 163.167969 L 209.355469 163.167969 L 209.355469 161.253906 L 246.035156 161.253906 C 246.058594 161.9375 246.078125 162.625 246.078125 163.3125 C 246.078125 168.648438 245.355469 173.820312 244.007812 178.742188 Z M 198.933594 128.085938 L 176.0625 128.085938 L 176.0625 126.660156 L 198.933594 126.660156 Z M 176.058594 163.164062 L 198.933594 163.164062 L 198.933594 164.589844 L 176.058594 164.589844 Z M 180.820312 139.296875 L 180.820312 158.3125 L 194.175781 158.3125 L 194.175781 139.296875 C 194.175781 135.617188 191.179688 132.621094 187.5 132.621094 C 183.816406 132.621094 180.820312 135.617188 180.820312 139.296875 Z M 192.746094 139.296875 L 192.746094 156.882812 L 182.246094 156.882812 L 182.246094 139.296875 C 182.246094 136.402344 184.601562 134.046875 187.492188 134.046875 C 190.386719 134.046875 192.746094 136.402344 192.746094 139.296875 Z M 204.324219 135.992188 C 204.324219 134.132812 202.8125 132.621094 200.957031 132.621094 C 199.101562 132.621094 197.589844 134.132812 197.589844 135.992188 L 197.589844 158.3125 L 204.324219 158.3125 Z M 202.898438 156.882812 L 199.015625 156.882812 L 199.015625 135.992188 C 199.015625 134.921875 199.886719 134.046875 200.960938 134.046875 C 202.03125 134.046875 202.902344 134.917969 202.902344 135.992188 L 202.902344 156.882812 Z M 177.402344 135.992188 C 177.402344 134.132812 175.890625 132.621094 174.035156 132.621094 C 172.175781 132.621094 170.664062 134.132812 170.664062 135.992188 L 170.664062 158.3125 L 177.398438 158.3125 L 177.398438 135.992188 Z M 175.976562 156.882812 L 172.09375 156.882812 L 172.09375 135.992188 C 172.09375 134.921875 172.964844 134.046875 174.035156 134.046875 C 175.109375 134.046875 175.980469 134.917969 175.980469 135.992188 L 175.980469 156.882812 Z M 193.457031 176.960938 C 192.046875 176.960938 190.898438 175.8125 190.898438 174.402344 L 190.898438 173.6875 L 184.097656 173.6875 L 184.097656 174.402344 C 184.097656 175.8125 182.945312 176.960938 181.535156 176.960938 L 180.820312 176.960938 L 180.820312 214.269531 L 181.535156 214.269531 C 182.945312 214.269531 184.097656 215.417969 184.097656 216.832031 L 184.097656 217.542969 L 190.898438 217.542969 L 190.898438 216.832031 C 190.898438 215.417969 192.046875 214.269531 193.457031 214.269531 L 194.171875 214.269531 L 194.171875 176.960938 Z M 192.746094 212.90625 C 191.117188 213.203125 189.828125 214.492188 189.535156 216.121094 L 185.457031 216.121094 C 185.160156 214.492188 183.875 213.203125 182.246094 212.90625 L 182.246094 178.324219 C 183.875 178.027344 185.164062 176.742188 185.457031 175.113281 L 189.535156 175.113281 C 189.828125 176.742188 191.117188 178.027344 192.746094 178.324219 Z M 192.746094 212.90625 " fill-opacity="1" fill-rule="nonzero"/></g><g fill="#ffffff" fill-opacity="1"><g transform="translate(142.890265, 277.613201)"><g><path d="M 4.320312 -3.585938 L 4.320312 -2.941406 L 1.53125 -2.941406 L 1.53125 -3.585938 C 1.53125 -4.191406 1.546875 -4.769531 1.613281 -5.195312 L 1.601562 -5.222656 C 1.507812 -5.207031 1.28125 -5.195312 1.183594 -5.195312 C 1.085938 -5.195312 0.871094 -5.207031 0.773438 -5.222656 L 0.757812 -5.195312 C 0.820312 -4.738281 0.839844 -4.191406 0.839844 -3.585938 L 0.839844 -1.613281 C 0.839844 -1.007812 0.820312 -0.433594 0.757812 0 L 0.765625 0.0234375 C 0.863281 0.0078125 1.085938 0 1.183594 0 C 1.28125 0 1.5 0.0078125 1.59375 0.0234375 L 1.613281 0 C 1.546875 -0.460938 1.53125 -1.007812 1.53125 -1.613281 L 1.53125 -2.585938 L 4.320312 -2.585938 L 4.320312 -1.613281 C 4.320312 -1.007812 4.300781 -0.433594 4.238281 0 L 4.246094 0.0234375 C 4.34375 0.0078125 4.570312 0 4.664062 0 C 4.761719 0 4.980469 0.0078125 5.078125 0.0234375 L 5.09375 0 C 5.027344 -0.460938 5.011719 -1.007812 5.011719 -1.613281 L 5.011719 -3.585938 C 5.011719 -4.191406 5.027344 -4.769531 5.09375 -5.195312 L 5.085938 -5.222656 C 4.988281 -5.207031 4.761719 -5.195312 4.664062 -5.195312 C 4.570312 -5.195312 4.351562 -5.207031 4.253906 -5.222656 L 4.238281 -5.195312 C 4.300781 -4.738281 4.320312 -4.191406 4.320312 -3.585938 Z M 4.320312 -3.585938 "/></g></g></g><g fill="#ffffff" fill-opacity="1"><g transform="translate(150.770561, 277.613201)"><g><path d="M 2.859375 -4.949219 C 3.996094 -4.949219 4.722656 -4.171875 4.722656 -2.496094 C 4.722656 -1.054688 4.054688 -0.273438 3.132812 -0.273438 C 2.167969 -0.273438 1.25 -1.085938 1.25 -2.636719 C 1.25 -4.328125 2.085938 -4.949219 2.859375 -4.949219 Z M 5.550781 -2.652344 C 5.550781 -4.246094 4.414062 -5.300781 2.964844 -5.300781 C 1.523438 -5.300781 0.417969 -4.078125 0.417969 -2.496094 C 0.417969 -0.910156 1.585938 0.0820312 2.972656 0.0820312 C 4.511719 0.0820312 5.550781 -1.039062 5.550781 -2.652344 Z M 5.550781 -2.652344 "/></g></g></g><g fill="#ffffff" fill-opacity="1"><g transform="translate(158.771714, 277.613201)"><g><path d="M 1.828125 -3.585938 L 1.828125 -1.613281 C 1.828125 -1.007812 1.8125 -0.433594 1.75 0 L 1.765625 0.0234375 C 1.859375 0.0078125 2.078125 0 2.175781 0 C 2.273438 0 2.488281 0.0078125 2.585938 0.0234375 L 2.601562 0 C 2.539062 -0.460938 2.523438 -1.007812 2.523438 -1.613281 L 2.523438 -3.585938 C 2.523438 -3.722656 2.53125 -4.550781 2.585938 -4.746094 C 3.667969 -4.746094 4.214844 -4.632812 4.214844 -4.632812 L 4.230469 -4.664062 C 4.214844 -4.785156 4.214844 -4.972656 4.230469 -5.195312 L 4.214844 -5.222656 C 4.085938 -5.207031 3.898438 -5.195312 3.730469 -5.195312 L 0.621094 -5.195312 C 0.453125 -5.195312 0.265625 -5.207031 0.136719 -5.222656 L 0.121094 -5.195312 C 0.136719 -4.972656 0.136719 -4.785156 0.121094 -4.664062 L 0.136719 -4.632812 C 0.136719 -4.632812 0.683594 -4.746094 1.765625 -4.746094 C 1.820312 -4.550781 1.828125 -3.722656 1.828125 -3.585938 Z M 1.828125 -3.585938 "/></g></g></g><g fill="#ffffff" fill-opacity="1"><g transform="translate(165.153293, 277.613201)"><g><path d="M 1.53125 -1.613281 L 1.53125 -2.554688 C 1.917969 -2.554688 2.773438 -2.53125 3.328125 -2.472656 L 3.351562 -2.496094 C 3.335938 -2.570312 3.328125 -2.683594 3.328125 -2.753906 C 3.328125 -2.828125 3.335938 -2.941406 3.351562 -3.011719 L 3.328125 -3.039062 C 2.851562 -2.996094 2.480469 -2.957031 1.53125 -2.957031 L 1.53125 -3.585938 C 1.53125 -3.722656 1.539062 -4.550781 1.59375 -4.746094 C 2.675781 -4.746094 3.785156 -4.648438 3.785156 -4.648438 L 3.804688 -4.679688 C 3.796875 -4.746094 3.785156 -4.820312 3.785156 -4.890625 C 3.785156 -4.957031 3.796875 -5.085938 3.804688 -5.195312 L 3.785156 -5.222656 C 3.65625 -5.207031 3.472656 -5.195312 3.304688 -5.195312 L 1.183594 -5.195312 C 0.910156 -5.195312 0.773438 -5.222656 0.773438 -5.222656 L 0.757812 -5.195312 C 0.820312 -4.738281 0.839844 -4.191406 0.839844 -3.585938 L 0.839844 -1.613281 C 0.839844 -1.007812 0.820312 -0.433594 0.757812 0 L 0.765625 0.0234375 C 0.765625 0.0234375 0.902344 0 1.183594 0 L 3.382812 0 C 3.554688 0 3.738281 0.0078125 3.867188 0.0234375 L 3.882812 0 C 3.875 -0.113281 3.867188 -0.167969 3.867188 -0.25 C 3.867188 -0.332031 3.875 -0.453125 3.882812 -0.515625 L 3.867188 -0.546875 C 3.867188 -0.546875 2.675781 -0.453125 1.59375 -0.453125 C 1.539062 -0.644531 1.53125 -1.472656 1.53125 -1.613281 Z M 1.53125 -1.613281 "/></g></g></g><g fill="#ffffff" fill-opacity="1"><g transform="translate(171.518759, 277.613201)"><g><path d="M 1.539062 -3.585938 C 1.539062 -4.191406 1.554688 -4.769531 1.621094 -5.195312 L 1.613281 -5.222656 C 1.515625 -5.207031 1.289062 -5.195312 1.191406 -5.195312 C 1.097656 -5.195312 0.878906 -5.207031 0.78125 -5.222656 L 0.765625 -5.195312 C 0.828125 -4.738281 0.847656 -4.191406 0.847656 -3.585938 L 0.847656 -1.613281 C 0.847656 -1.007812 0.828125 -0.433594 0.765625 0 L 0.773438 0.0234375 C 0.773438 0.0234375 0.917969 0 1.191406 0 L 3.390625 0 C 3.5625 0 3.746094 0.0078125 3.875 0.0234375 L 3.890625 0 C 3.882812 -0.113281 3.875 -0.273438 3.875 -0.355469 C 3.875 -0.433594 3.882812 -0.570312 3.890625 -0.636719 L 3.875 -0.667969 C 3.875 -0.667969 2.683594 -0.492188 1.601562 -0.492188 C 1.546875 -0.683594 1.539062 -1.472656 1.539062 -1.613281 Z M 1.539062 -3.585938 "/></g></g></g><g fill="#ffffff" fill-opacity="1"><g transform="translate(177.698901, 277.613201)"><g/></g></g><g fill="#ffffff" fill-opacity="1"><g transform="translate(181.743785, 277.613201)"><g><path d="M 2.054688 -2.722656 C 2.144531 -2.554688 2.738281 -1.675781 3.199219 -1.070312 C 2.804688 -0.53125 2.601562 -0.242188 2.03125 -0.242188 C 1.523438 -0.242188 1.070312 -0.46875 1.070312 -1.257812 C 1.070312 -1.828125 1.226562 -2.265625 2.054688 -2.722656 Z M 2.359375 -3.3125 C 2.136719 -3.683594 2.054688 -4.035156 2.054688 -4.222656 C 2.054688 -4.753906 2.457031 -4.988281 2.667969 -4.988281 C 2.996094 -4.988281 3.191406 -4.746094 3.191406 -4.382812 C 3.191406 -4.09375 2.875 -3.648438 2.359375 -3.3125 Z M 3.519531 -1.546875 C 3.152344 -2.046875 2.714844 -2.675781 2.570312 -2.925781 L 2.539062 -2.988281 C 3.207031 -3.375 3.730469 -3.941406 3.730469 -4.382812 C 3.730469 -4.890625 3.269531 -5.300781 2.707031 -5.300781 C 1.902344 -5.300781 1.441406 -4.679688 1.441406 -4.207031 C 1.441406 -3.898438 1.570312 -3.496094 1.878906 -3.023438 C 0.8125 -2.425781 0.355469 -1.917969 0.355469 -1.335938 C 0.355469 -0.304688 1.113281 0.0820312 1.972656 0.0820312 C 2.660156 0.0820312 3.0625 -0.25 3.433594 -0.757812 L 3.667969 -0.460938 C 4.042969 0.0664062 4.34375 0.0820312 4.59375 0.0820312 C 4.875 0.0820312 5.195312 -0.160156 5.382812 -0.726562 L 5.253906 -0.789062 C 5.09375 -0.476562 4.90625 -0.355469 4.640625 -0.355469 C 4.511719 -0.355469 4.269531 -0.507812 4.019531 -0.863281 L 3.746094 -1.234375 C 3.925781 -1.507812 4.707031 -2.941406 5.019531 -3.480469 C 4.9375 -3.457031 4.753906 -3.457031 4.671875 -3.457031 C 4.59375 -3.457031 4.441406 -3.457031 4.359375 -3.480469 C 4.292969 -2.949219 4.09375 -2.394531 3.519531 -1.546875 Z M 3.519531 -1.546875 "/></g></g></g><g fill="#ffffff" fill-opacity="1"><g transform="translate(189.495161, 277.613201)"><g/></g></g><g fill="#ffffff" fill-opacity="1"><g transform="translate(193.540046, 277.613201)"><g><path d="M 1.53125 -2.304688 C 1.8125 -2.304688 2.054688 -2.3125 2.273438 -2.328125 C 2.496094 -2.0625 2.675781 -1.75 2.882812 -1.417969 C 3.175781 -0.949219 3.5625 -0.25 3.648438 0.0234375 C 3.804688 0 3.980469 0 4.132812 0 C 4.292969 0 4.457031 0 4.617188 0.0234375 L 4.632812 0 C 4.230469 -0.453125 3.417969 -1.722656 2.910156 -2.410156 C 3.125 -2.449219 3.289062 -2.496094 3.398438 -2.5625 C 3.835938 -2.78125 4.207031 -3.199219 4.207031 -3.859375 C 4.207031 -4.261719 4.070312 -4.59375 3.777344 -4.867188 C 3.390625 -5.230469 2.78125 -5.253906 2.273438 -5.253906 C 2.070312 -5.253906 1.425781 -5.195312 1.183594 -5.195312 C 1.085938 -5.195312 0.871094 -5.207031 0.773438 -5.222656 L 0.757812 -5.195312 C 0.820312 -4.738281 0.839844 -4.191406 0.839844 -3.585938 L 0.839844 -1.613281 C 0.839844 -1.007812 0.820312 -0.433594 0.757812 0 L 0.773438 0.0234375 C 0.871094 0.0078125 1.085938 0 1.183594 0 C 1.28125 0 1.5 0.0078125 1.59375 0.0234375 L 1.613281 0 C 1.546875 -0.460938 1.53125 -1.007812 1.53125 -1.613281 Z M 2.28125 -4.90625 C 2.773438 -4.90625 3.433594 -4.722656 3.433594 -3.851562 C 3.433594 -2.867188 2.78125 -2.625 2 -2.625 L 1.53125 -2.625 L 1.53125 -4.550781 C 1.53125 -4.867188 1.554688 -4.90625 2.28125 -4.90625 Z M 2.28125 -4.90625 "/></g></g></g><g fill="#ffffff" fill-opacity="1"><g transform="translate(200.40509, 277.613201)"><g><path d="M 1.53125 -1.613281 L 1.53125 -2.554688 C 1.917969 -2.554688 2.773438 -2.53125 3.328125 -2.472656 L 3.351562 -2.496094 C 3.335938 -2.570312 3.328125 -2.683594 3.328125 -2.753906 C 3.328125 -2.828125 3.335938 -2.941406 3.351562 -3.011719 L 3.328125 -3.039062 C 2.851562 -2.996094 2.480469 -2.957031 1.53125 -2.957031 L 1.53125 -3.585938 C 1.53125 -3.722656 1.539062 -4.550781 1.59375 -4.746094 C 2.675781 -4.746094 3.785156 -4.648438 3.785156 -4.648438 L 3.804688 -4.679688 C 3.796875 -4.746094 3.785156 -4.820312 3.785156 -4.890625 C 3.785156 -4.957031 3.796875 -5.085938 3.804688 -5.195312 L 3.785156 -5.222656 C 3.65625 -5.207031 3.472656 -5.195312 3.304688 -5.195312 L 1.183594 -5.195312 C 0.910156 -5.195312 0.773438 -5.222656 0.773438 -5.222656 L 0.757812 -5.195312 C 0.820312 -4.738281 0.839844 -4.191406 0.839844 -3.585938 L 0.839844 -1.613281 C 0.839844 -1.007812 0.820312 -0.433594 0.757812 0 L 0.765625 0.0234375 C 0.765625 0.0234375 0.902344 0 1.183594 0 L 3.382812 0 C 3.554688 0 3.738281 0.0078125 3.867188 0.0234375 L 3.882812 0 C 3.875 -0.113281 3.867188 -0.167969 3.867188 -0.25 C 3.867188 -0.332031 3.875 -0.453125 3.882812 -0.515625 L 3.867188 -0.546875 C 3.867188 -0.546875 2.675781 -0.453125 1.59375 -0.453125 C 1.539062 -0.644531 1.53125 -1.472656 1.53125 -1.613281 Z M 1.53125 -1.613281 "/></g></g></g><g fill="#ffffff" fill-opacity="1"><g transform="translate(206.770555, 277.613201)"><g><path d="M 1.949219 -0.273438 C 1.5 -0.273438 0.917969 -0.667969 0.667969 -1.144531 L 0.589844 -1.136719 C 0.554688 -0.847656 0.46875 -0.546875 0.402344 -0.304688 L 0.417969 -0.28125 C 0.417969 -0.28125 0.941406 0.0820312 1.886719 0.0820312 C 2.875 0.0820312 3.640625 -0.523438 3.640625 -1.457031 C 3.640625 -2.394531 2.84375 -2.820312 2.199219 -3.070312 C 1.789062 -3.222656 1.214844 -3.457031 1.214844 -4.125 C 1.214844 -4.414062 1.378906 -4.738281 1.585938 -4.851562 C 1.722656 -4.921875 1.894531 -4.949219 2.078125 -4.949219 C 2.523438 -4.949219 2.957031 -4.601562 3.175781 -4.101562 L 3.253906 -4.109375 C 3.289062 -4.398438 3.367188 -4.671875 3.441406 -4.914062 L 3.425781 -4.9375 C 3.425781 -4.9375 3.085938 -5.300781 2.144531 -5.300781 C 1.925781 -5.300781 1.683594 -5.261719 1.449219 -5.164062 C 0.976562 -4.964844 0.5625 -4.496094 0.5625 -3.90625 C 0.5625 -3.0625 1.28125 -2.667969 1.949219 -2.386719 C 2.472656 -2.167969 2.894531 -1.902344 2.894531 -1.214844 C 2.894531 -0.613281 2.425781 -0.273438 1.949219 -0.273438 Z M 1.949219 -0.273438 "/></g></g></g><g fill="#ffffff" fill-opacity="1"><g transform="translate(212.878178, 277.613201)"><g><path d="M 2.859375 -4.949219 C 3.996094 -4.949219 4.722656 -4.171875 4.722656 -2.496094 C 4.722656 -1.054688 4.054688 -0.273438 3.132812 -0.273438 C 2.167969 -0.273438 1.25 -1.085938 1.25 -2.636719 C 1.25 -4.328125 2.085938 -4.949219 2.859375 -4.949219 Z M 5.550781 -2.652344 C 5.550781 -4.246094 4.414062 -5.300781 2.964844 -5.300781 C 1.523438 -5.300781 0.417969 -4.078125 0.417969 -2.496094 C 0.417969 -0.910156 1.585938 0.0820312 2.972656 0.0820312 C 4.511719 0.0820312 5.550781 -1.039062 5.550781 -2.652344 Z M 5.550781 -2.652344 "/></g></g></g><g fill="#ffffff" fill-opacity="1"><g transform="translate(220.879333, 277.613201)"><g><path d="M 1.53125 -2.304688 C 1.8125 -2.304688 2.054688 -2.3125 2.273438 -2.328125 C 2.496094 -2.0625 2.675781 -1.75 2.882812 -1.417969 C 3.175781 -0.949219 3.5625 -0.25 3.648438 0.0234375 C 3.804688 0 3.980469 0 4.132812 0 C 4.292969 0 4.457031 0 4.617188 0.0234375 L 4.632812 0 C 4.230469 -0.453125 3.417969 -1.722656 2.910156 -2.410156 C 3.125 -2.449219 3.289062 -2.496094 3.398438 -2.5625 C 3.835938 -2.78125 4.207031 -3.199219 4.207031 -3.859375 C 4.207031 -4.261719 4.070312 -4.59375 3.777344 -4.867188 C 3.390625 -5.230469 2.78125 -5.253906 2.273438 -5.253906 C 2.070312 -5.253906 1.425781 -5.195312 1.183594 -5.195312 C 1.085938 -5.195312 0.871094 -5.207031 0.773438 -5.222656 L 0.757812 -5.195312 C 0.820312 -4.738281 0.839844 -4.191406 0.839844 -3.585938 L 0.839844 -1.613281 C 0.839844 -1.007812 0.820312 -0.433594 0.757812 0 L 0.773438 0.0234375 C 0.871094 0.0078125 1.085938 0 1.183594 0 C 1.28125 0 1.5 0.0078125 1.59375 0.0234375 L 1.613281 0 C 1.546875 -0.460938 1.53125 -1.007812 1.53125 -1.613281 Z M 2.28125 -4.90625 C 2.773438 -4.90625 3.433594 -4.722656 3.433594 -3.851562 C 3.433594 -2.867188 2.78125 -2.625 2 -2.625 L 1.53125 -2.625 L 1.53125 -4.550781 C 1.53125 -4.867188 1.554688 -4.90625 2.28125 -4.90625 Z M 2.28125 -4.90625 "/></g></g></g><g fill="#ffffff" fill-opacity="1"><g transform="translate(227.744377, 277.613201)"><g><path d="M 1.828125 -3.585938 L 1.828125 -1.613281 C 1.828125 -1.007812 1.8125 -0.433594 1.75 0 L 1.765625 0.0234375 C 1.859375 0.0078125 2.078125 0 2.175781 0 C 2.273438 0 2.488281 0.0078125 2.585938 0.0234375 L 2.601562 0 C 2.539062 -0.460938 2.523438 -1.007812 2.523438 -1.613281 L 2.523438 -3.585938 C 2.523438 -3.722656 2.53125 -4.550781 2.585938 -4.746094 C 3.667969 -4.746094 4.214844 -4.632812 4.214844 -4.632812 L 4.230469 -4.664062 C 4.214844 -4.785156 4.214844 -4.972656 4.230469 -5.195312 L 4.214844 -5.222656 C 4.085938 -5.207031 3.898438 -5.195312 3.730469 -5.195312 L 0.621094 -5.195312 C 0.453125 -5.195312 0.265625 -5.207031 0.136719 -5.222656 L 0.121094 -5.195312 C 0.136719 -4.972656 0.136719 -4.785156 0.121094 -4.664062 L 0.136719 -4.632812 C 0.136719 -4.632812 0.683594 -4.746094 1.765625 -4.746094 C 1.820312 -4.550781 1.828125 -3.722656 1.828125 -3.585938 Z M 1.828125 -3.585938 "/></g></g></g><g fill="#ffffff" fill-opacity="1"><g transform="translate(112.169791, 253.030839)"><g><path d="M 9.449219 -16.359375 C 5.246094 -16.359375 1.292969 -12.730469 1.292969 -7.832031 C 1.292969 -3.53125 3.753906 0.25 9.101562 0.25 C 11.386719 0.25 13.550781 -0.449219 15.214844 -2.460938 C 15.191406 -2.757812 15.140625 -3.308594 15.066406 -3.53125 L 14.894531 -3.605469 C 13.128906 -1.664062 11.636719 -1.019531 9.324219 -1.019531 C 6.164062 -1.019531 3.855469 -4.425781 3.855469 -8.304688 C 3.855469 -13.351562 7.0625 -15.191406 9.101562 -15.191406 C 11.335938 -15.191406 13.152344 -14.296875 14.171875 -12.257812 L 14.46875 -12.28125 C 14.542969 -13.550781 14.644531 -13.972656 14.917969 -15.042969 L 14.867188 -15.117188 C 14.867188 -15.117188 12.480469 -16.359375 9.449219 -16.359375 Z M 9.449219 -16.359375 "/></g></g></g><g fill="#ffffff" fill-opacity="1"><g transform="translate(130.687962, 253.030839)"><g><path d="M 13.328125 -11.0625 L 13.328125 -9.074219 L 4.722656 -9.074219 L 4.722656 -11.0625 C 4.722656 -12.929688 4.773438 -14.71875 4.972656 -16.035156 L 4.949219 -16.109375 C 4.648438 -16.0625 3.953125 -16.035156 3.65625 -16.035156 C 3.355469 -16.035156 2.683594 -16.0625 2.386719 -16.109375 L 2.335938 -16.035156 C 2.535156 -14.621094 2.585938 -12.929688 2.585938 -11.0625 L 2.585938 -4.972656 C 2.585938 -3.109375 2.535156 -1.34375 2.335938 0 L 2.363281 0.0742188 C 2.660156 0.0234375 3.355469 0 3.65625 0 C 3.953125 0 4.625 0.0234375 4.921875 0.0742188 L 4.972656 0 C 4.773438 -1.417969 4.722656 -3.109375 4.722656 -4.972656 L 4.722656 -7.980469 L 13.328125 -7.980469 L 13.328125 -4.972656 C 13.328125 -3.109375 13.277344 -1.34375 13.078125 0 L 13.101562 0.0742188 C 13.402344 0.0234375 14.097656 0 14.394531 0 C 14.695312 0 15.363281 0.0234375 15.664062 0.0742188 L 15.714844 0 C 15.515625 -1.417969 15.464844 -3.109375 15.464844 -4.972656 L 15.464844 -11.0625 C 15.464844 -12.929688 15.515625 -14.71875 15.714844 -16.035156 L 15.6875 -16.109375 C 15.390625 -16.0625 14.695312 -16.035156 14.394531 -16.035156 C 14.097656 -16.035156 13.425781 -16.0625 13.128906 -16.109375 L 13.078125 -16.035156 C 13.277344 -14.621094 13.328125 -12.929688 13.328125 -11.0625 Z M 13.328125 -11.0625 "/></g></g></g><g fill="#ffffff" fill-opacity="1"><g transform="translate(150.424046, 253.030839)"><g><path d="M 10.117188 -6.835938 C 9.296875 -6.8125 8.253906 -6.789062 7.535156 -6.789062 C 6.8125 -6.789062 5.46875 -6.8125 4.921875 -6.835938 L 7.558594 -12.953125 L 7.609375 -12.953125 C 8.628906 -10.617188 9.449219 -8.578125 10.117188 -6.835938 Z M 4.449219 -5.667969 C 5.070312 -5.71875 6.789062 -5.742188 7.65625 -5.742188 C 8.601562 -5.742188 9.96875 -5.71875 10.566406 -5.667969 C 11.785156 -2.410156 12.332031 -0.472656 12.503906 0.0742188 C 12.929688 0 13.328125 0 13.75 0 C 14.171875 0 14.816406 0 15.242188 0.0742188 C 13.996094 -2.4375 10.714844 -10.914062 8.429688 -16.359375 L 7.730469 -16.359375 C 5.34375 -10.839844 2.910156 -5.421875 0.398438 0.0742188 C 0.695312 0 0.996094 0 1.269531 0 C 1.542969 0 2.089844 0 2.386719 0.0742188 C 2.785156 -1.441406 3.554688 -3.480469 4.449219 -5.667969 Z M 4.449219 -5.667969 "/></g></g></g><g fill="#ffffff" fill-opacity="1"><g transform="translate(167.749147, 253.030839)"><g><path d="M 4.796875 -16.457031 C 3.929688 -11.4375 2.5625 -4.574219 1.589844 0.0742188 C 1.863281 0 2.113281 0 2.410156 0 C 2.683594 0 2.882812 0 3.15625 0.0742188 C 3.53125 -2.535156 4.375 -8.082031 4.972656 -11.835938 L 5.097656 -11.835938 C 6.960938 -7.882812 8.726562 -3.855469 10.316406 0 L 10.789062 0 C 12.582031 -4.078125 14.34375 -7.855469 16.308594 -11.761719 L 16.382812 -11.734375 C 16.90625 -7.832031 17.402344 -4.027344 17.777344 0.0742188 C 18.148438 0 18.621094 0 18.996094 0 C 19.367188 0 20.015625 0 20.386719 0.0742188 C 19.492188 -5.246094 18.746094 -10.417969 18.050781 -16.457031 L 17.429688 -16.457031 L 11.386719 -4.128906 L 11.1875 -4.128906 C 9.222656 -8.203125 7.433594 -12.183594 5.617188 -16.457031 Z M 4.796875 -16.457031 "/></g></g></g><g fill="#ffffff" fill-opacity="1"><g transform="translate(191.462111, 253.030839)"><g><path d="M 4.722656 -13.898438 C 4.722656 -14.71875 4.972656 -15.042969 6.988281 -15.042969 C 8.378906 -15.042969 10.144531 -14.496094 10.144531 -11.957031 C 10.144531 -9.84375 8.726562 -9.222656 6.664062 -9.222656 L 4.722656 -9.222656 Z M 4.722656 -8.15625 L 7.035156 -8.15625 C 9.945312 -8.15625 11.3125 -6.339844 11.3125 -4.101562 C 11.3125 -2.363281 10.714844 -0.996094 7.136719 -0.996094 C 5.394531 -0.996094 4.722656 -1.367188 4.722656 -2.1875 Z M 3.65625 -16.035156 C 2.808594 -16.035156 2.386719 -16.109375 2.386719 -16.109375 L 2.335938 -16.035156 C 2.535156 -14.621094 2.585938 -12.929688 2.585938 -11.0625 L 2.585938 -4.972656 C 2.585938 -3.109375 2.535156 -1.34375 2.335938 0 L 2.363281 0.0742188 C 2.363281 0.0742188 2.785156 0 3.65625 0 C 5.195312 0 5.394531 0.0742188 7.609375 0.0742188 C 12.554688 0.0742188 13.773438 -2.4375 13.773438 -4.574219 C 13.773438 -6.960938 12.15625 -8.328125 9.996094 -8.949219 C 11.261719 -9.570312 12.308594 -10.890625 12.308594 -12.257812 C 12.308594 -13.921875 11.4375 -16.109375 6.8125 -16.109375 C 5.941406 -16.109375 4.898438 -16.035156 3.65625 -16.035156 Z M 3.65625 -16.035156 "/></g></g></g><g fill="#ffffff" fill-opacity="1"><g transform="translate(208.464081, 253.030839)"><g><path d="M 8.828125 -15.265625 C 12.332031 -15.265625 14.570312 -12.878906 14.570312 -7.707031 C 14.570312 -3.257812 12.503906 -0.84375 9.671875 -0.84375 C 6.6875 -0.84375 3.855469 -3.355469 3.855469 -8.128906 C 3.855469 -13.351562 6.4375 -15.265625 8.828125 -15.265625 Z M 17.128906 -8.179688 C 17.128906 -13.101562 13.625 -16.359375 9.148438 -16.359375 C 4.699219 -16.359375 1.292969 -12.582031 1.292969 -7.707031 C 1.292969 -2.808594 4.898438 0.25 9.175781 0.25 C 13.921875 0.25 17.128906 -3.207031 17.128906 -8.179688 Z M 17.128906 -8.179688 "/></g></g></g><g fill="#ffffff" fill-opacity="1"><g transform="translate(228.572998, 253.030839)"><g><path d="M 4.722656 -7.109375 C 5.59375 -7.109375 6.339844 -7.136719 7.011719 -7.183594 C 7.707031 -6.363281 8.253906 -5.394531 8.902344 -4.375 C 9.796875 -2.933594 10.988281 -0.769531 11.261719 0.0742188 C 11.734375 0 12.28125 0 12.753906 0 C 13.25 0 13.75 0 14.246094 0.0742188 L 14.296875 0 C 13.054688 -1.390625 10.542969 -5.320312 8.976562 -7.433594 C 9.648438 -7.558594 10.144531 -7.707031 10.492188 -7.90625 C 11.835938 -8.578125 12.976562 -9.871094 12.976562 -11.910156 C 12.976562 -13.152344 12.554688 -14.171875 11.660156 -15.015625 C 10.46875 -16.136719 8.578125 -16.210938 7.011719 -16.210938 C 6.390625 -16.210938 4.402344 -16.035156 3.65625 -16.035156 C 3.355469 -16.035156 2.683594 -16.0625 2.386719 -16.109375 L 2.335938 -16.035156 C 2.535156 -14.621094 2.585938 -12.929688 2.585938 -11.0625 L 2.585938 -4.972656 C 2.585938 -3.109375 2.535156 -1.34375 2.335938 0 L 2.386719 0.0742188 C 2.683594 0.0234375 3.355469 0 3.65625 0 C 3.953125 0 4.625 0.0234375 4.921875 0.0742188 L 4.972656 0 C 4.773438 -1.417969 4.722656 -3.109375 4.722656 -4.972656 Z M 7.035156 -15.140625 C 8.550781 -15.140625 10.589844 -14.570312 10.589844 -11.882812 C 10.589844 -8.851562 8.578125 -8.105469 6.164062 -8.105469 L 4.722656 -8.105469 L 4.722656 -14.046875 C 4.722656 -15.015625 4.796875 -15.140625 7.035156 -15.140625 Z M 7.035156 -15.140625 "/></g></g></g><g fill="#ffffff" fill-opacity="1"><g transform="translate(245.177298, 253.030839)"><g><path d="M 4.722656 -2.039062 L 4.722656 -14.023438 C 4.722656 -14.894531 5.59375 -15.015625 6.8125 -15.015625 C 12.183594 -15.015625 13.796875 -10.890625 13.796875 -7.0625 C 13.796875 -2.039062 10.941406 -1.042969 7.433594 -1.042969 C 4.996094 -1.042969 4.722656 -1.242188 4.722656 -2.039062 Z M 3.65625 -16.035156 C 2.808594 -16.035156 2.386719 -16.109375 2.386719 -16.109375 L 2.335938 -16.035156 C 2.535156 -14.621094 2.585938 -12.929688 2.585938 -11.0625 L 2.585938 -4.972656 C 2.585938 -3.109375 2.535156 -1.34375 2.335938 0 L 2.363281 0.0742188 C 2.363281 0.0742188 2.785156 0 3.65625 0 C 5.421875 0 5.644531 0.0507812 8.203125 0.0507812 C 11.710938 0.0507812 16.359375 -1.542969 16.359375 -7.65625 C 16.359375 -12.28125 12.53125 -16.109375 7.757812 -16.109375 C 6.164062 -16.109375 5.246094 -16.035156 3.65625 -16.035156 Z M 3.65625 -16.035156 "/></g></g></g><path stroke-linecap="butt" transform="matrix(0.750773, 0, 0, 0.75, 119.315094, 259.856203)" fill="none" stroke-linejoin="miter" d="M 0.00174751 0.499021 L 181.824669 0.499021 " stroke="#e4b344" stroke-width="1" stroke-opacity="1" stroke-miterlimit="4"/><path stroke-linecap="butt" transform="matrix(0.750773, 0, 0, 0.75, 119.315094, 263.463791)" fill="none" stroke-linejoin="miter" d="M 0.00174751 0.501403 L 181.824669 0.501403 " stroke="#e4b344" stroke-width="1" stroke-opacity="1" stroke-miterlimit="4"/><g clip-path="url(#ec40d714ea)"><path fill="#e4b344" d="M 167.984375 85.710938 L 170.984375 88.761719 L 174.878906 87.625 L 172.914062 91.429688 L 175.195312 94.796875 L 170.980469 94.097656 L 168.492188 97.3125 L 167.855469 93.074219 L 164.039062 91.695312 L 167.859375 89.777344 Z M 187.347656 79.015625 L 189.824219 84.582031 L 195.582031 85.019531 L 191.070312 89.105469 L 192.433594 94.730469 L 187.167969 91.691406 L 182.257812 94.730469 L 183.511719 88.765625 L 179.113281 85.019531 L 185.152344 84.371094 Z M 206.707031 85.710938 L 203.707031 88.761719 L 199.8125 87.625 L 201.777344 91.429688 L 199.5 94.796875 L 203.710938 94.097656 L 206.199219 97.3125 L 206.835938 93.074219 L 210.652344 91.695312 L 206.835938 89.777344 Z M 219.679688 95.402344 L 216.621094 97.144531 L 213.789062 95.367188 L 214.496094 98.824219 L 211.9375 100.976562 L 215.429688 101.375 L 216.679688 104.480469 L 218.136719 101.265625 L 221.46875 101.035156 L 218.871094 98.652344 Z M 155.011719 95.402344 L 158.070312 97.144531 L 160.90625 95.367188 L 160.199219 98.824219 L 162.757812 100.976562 L 159.261719 101.375 L 158.011719 104.480469 L 156.558594 101.265625 L 153.226562 101.035156 L 155.824219 98.652344 Z M 155.011719 95.402344 " fill-opacity="1" fill-rule="evenodd"/></g></svg>