<svg xmlns="http://www.w3.org/2000/svg" xmlns:xlink="http://www.w3.org/1999/xlink" width="500" zoomAndPan="magnify" viewBox="0 0 375 374.999991" height="500" preserveAspectRatio="xMidYMid meet" version="1.0"><defs><clipPath id="5066c0a155"><path d="M 147.921875 165 L 227.421875 165 L 227.421875 209.882812 L 147.921875 209.882812 Z M 147.921875 165 " clip-rule="nonzero"/></clipPath></defs><g clip-path="url(#5066c0a155)"><path fill="#9f890d" d="M 189.203125 205.304688 C 189.429688 205.078125 189.882812 204.96875 190.335938 204.96875 C 190.335938 205.527344 190.449219 206.203125 190.792969 206.765625 C 189.769531 206.878906 189.316406 205.980469 189.316406 205.527344 L 189.316406 205.417969 Z M 179.675781 168.226562 C 179.109375 168.226562 178.769531 167.777344 178.769531 167.328125 C 178.769531 166.769531 179.222656 166.429688 179.675781 166.429688 C 180.246094 166.429688 180.585938 166.878906 180.585938 167.328125 C 180.585938 167.667969 180.359375 168.003906 180.132812 168.117188 L 182.398438 170.925781 C 182.625 171.148438 182.851562 171.261719 183.078125 171.148438 C 183.304688 171.039062 183.53125 170.8125 183.53125 170.585938 L 183.417969 167.328125 C 183.304688 167.328125 183.304688 167.328125 183.191406 167.328125 C 182.625 167.328125 182.285156 166.878906 182.285156 166.429688 C 182.285156 165.867188 182.738281 165.53125 183.191406 165.53125 C 183.761719 165.53125 184.101562 165.980469 184.101562 166.429688 C 184.101562 166.878906 183.875 167.21875 183.417969 167.328125 L 185.007812 170.476562 C 185.121094 170.8125 185.460938 170.925781 185.800781 170.925781 C 186.140625 170.925781 186.480469 170.585938 186.480469 170.25 L 187.277344 166.992188 C 186.820312 166.992188 186.367188 166.542969 186.367188 166.09375 C 186.367188 165.53125 186.820312 165.195312 187.277344 165.195312 C 187.84375 165.195312 188.183594 165.644531 188.183594 166.09375 C 188.183594 166.542969 187.730469 166.992188 187.277344 166.992188 L 188.070312 170.25 C 188.183594 170.585938 188.410156 170.8125 188.75 170.925781 C 189.089844 170.925781 189.429688 170.8125 189.542969 170.476562 L 191.132812 167.328125 C 190.792969 167.21875 190.449219 166.878906 190.449219 166.429688 C 190.449219 165.867188 190.90625 165.53125 191.359375 165.53125 C 191.925781 165.53125 192.265625 165.980469 192.265625 166.429688 C 192.265625 166.992188 191.8125 167.328125 191.359375 167.328125 C 191.246094 167.328125 191.246094 167.328125 191.132812 167.328125 L 191.019531 170.585938 C 191.019531 170.8125 191.246094 171.148438 191.472656 171.148438 C 191.699219 171.261719 192.039062 171.148438 192.152344 170.925781 L 194.421875 168.117188 C 194.195312 168.003906 193.96875 167.667969 193.96875 167.328125 C 193.96875 166.769531 194.421875 166.429688 194.875 166.429688 C 195.441406 166.429688 195.78125 166.878906 195.78125 167.328125 C 195.78125 167.890625 195.328125 168.226562 194.875 168.226562 C 194.761719 168.226562 194.648438 168.226562 194.535156 168.117188 L 191.246094 175.304688 C 191.246094 175.304688 189.542969 175.980469 187.164062 175.980469 C 184.667969 175.980469 183.078125 175.304688 183.078125 175.304688 L 179.789062 168.117188 C 179.675781 168.117188 179.5625 168.226562 179.449219 168.226562 Z M 173.214844 190.363281 C 172.757812 190.363281 171.738281 190.023438 172.304688 188.5625 C 173.894531 188.902344 173.554688 189.914062 173.328125 190.363281 C 173.328125 190.363281 173.214844 190.363281 173.214844 190.363281 Z M 173.554688 190.25 C 173.441406 189.800781 173.554688 188.789062 175.027344 188.902344 C 175.027344 190.472656 174.007812 190.472656 173.554688 190.363281 C 173.554688 190.363281 173.554688 190.363281 173.441406 190.25 Z M 173.554688 192.046875 C 173.441406 191.597656 173.328125 190.472656 174.914062 190.472656 C 175.140625 192.046875 174.121094 192.160156 173.554688 192.046875 C 173.554688 192.046875 173.554688 192.046875 173.441406 192.046875 Z M 184.441406 202.496094 C 186.480469 202.71875 186.367188 204.070312 186.027344 204.628906 L 185.914062 204.742188 C 185.574219 204.742188 185.121094 204.742188 184.78125 204.519531 C 184.78125 204.40625 184.78125 204.292969 184.78125 204.179688 C 184.78125 203.621094 184.554688 203.058594 184.328125 202.496094 Z M 186.253906 203.621094 C 187.050781 203.507812 187.390625 203.84375 187.503906 204.179688 C 187.617188 203.84375 187.957031 203.507812 188.75 203.621094 C 188.863281 204.96875 187.957031 204.855469 187.503906 204.742188 C 187.164062 204.855469 186.253906 204.855469 186.253906 203.621094 Z M 173.214844 192.160156 C 172.757812 192.160156 171.625 191.933594 172.078125 190.472656 C 173.667969 190.585938 173.554688 191.710938 173.328125 192.160156 C 173.328125 192.160156 173.214844 192.160156 173.214844 192.160156 Z M 171.964844 192.609375 C 173.667969 192.496094 173.667969 193.621094 173.554688 194.070312 C 173.554688 194.070312 173.554688 194.070312 173.441406 194.179688 C 172.984375 194.292969 171.851562 194.292969 171.964844 192.609375 Z M 173.78125 193.957031 C 173.554688 193.507812 173.328125 192.382812 174.914062 192.160156 C 175.367188 193.730469 174.347656 194.070312 173.78125 194.070312 C 173.78125 194.070312 173.667969 194.070312 173.667969 194.070312 Z M 174.234375 195.867188 C 173.894531 195.417969 173.554688 194.292969 175.140625 193.84375 C 175.820312 195.417969 174.800781 195.867188 174.234375 195.867188 C 174.234375 195.867188 174.121094 195.867188 174.121094 195.867188 Z M 175.027344 197.664062 C 174.6875 197.214844 174.121094 196.203125 175.820312 195.53125 C 176.730469 197.101562 175.707031 197.550781 175.140625 197.664062 C 175.140625 197.664062 175.027344 197.664062 175.027344 197.664062 Z M 172.078125 194.632812 C 173.78125 194.292969 173.894531 195.417969 173.894531 195.980469 C 173.894531 195.980469 173.894531 195.980469 173.78125 196.089844 C 173.328125 196.316406 172.191406 196.316406 172.078125 194.632812 Z M 175.59375 198.449219 C 175.59375 198 175.707031 197.550781 176.5 196.992188 C 177.183594 197.890625 177.070312 198.449219 176.84375 198.902344 C 176.613281 198.902344 176.273438 199.011719 176.046875 199.011719 C 175.933594 198.789062 175.820312 198.5625 175.59375 198.449219 C 175.59375 198.449219 175.59375 198.449219 175.480469 198.449219 Z M 182.058594 178.453125 C 181.945312 178.117188 181.945312 177.441406 182.964844 177.441406 C 183.191406 178.453125 182.398438 178.566406 182.058594 178.566406 Z M 183.53125 178.003906 C 183.417969 177.664062 183.53125 176.992188 184.554688 177.105469 C 184.554688 178.117188 183.875 178.117188 183.648438 178.003906 Z M 185.121094 178.003906 C 185.347656 177.890625 186.027344 177.777344 186.140625 178.789062 C 185.234375 179.015625 185.121094 178.339844 185.121094 178.117188 Z M 185.007812 177.777344 C 185.007812 177.441406 185.007812 176.878906 186.027344 176.992188 C 186.027344 178.003906 185.347656 177.890625 185.121094 177.777344 Z M 180.699219 179.125 C 180.585938 178.789062 180.359375 178.117188 181.492188 177.890625 C 181.832031 178.902344 181.152344 179.125 180.8125 179.125 Z M 182.285156 178.675781 C 182.511719 178.453125 183.304688 178.226562 183.53125 179.351562 C 182.511719 179.800781 182.285156 179.125 182.285156 178.789062 C 182.285156 178.789062 182.285156 178.789062 182.285156 178.675781 Z M 184.894531 179.015625 C 183.875 179.238281 183.761719 178.675781 183.761719 178.339844 C 183.761719 178.339844 183.761719 178.339844 183.761719 178.226562 C 183.988281 178.117188 184.667969 178.003906 184.894531 178.902344 Z M 179.335938 179.914062 C 179.109375 179.574219 178.996094 178.902344 180.132812 178.566406 C 180.585938 179.6875 179.789062 179.914062 179.449219 179.914062 Z M 180.925781 179.464844 C 180.925781 179.464844 180.925781 179.464844 180.925781 179.351562 C 181.152344 179.125 181.832031 178.789062 182.285156 179.800781 C 181.378906 180.363281 180.925781 179.800781 180.925781 179.464844 Z M 177.976562 181.035156 C 177.75 180.8125 177.296875 180.023438 178.429688 179.464844 C 179.109375 180.476562 178.429688 180.925781 178.089844 181.035156 C 178.089844 181.035156 178.089844 181.035156 177.976562 181.035156 Z M 179.449219 180.25 C 179.449219 180.25 179.449219 180.25 179.449219 180.136719 C 179.675781 179.914062 180.359375 179.464844 180.925781 180.476562 C 180.015625 181.148438 179.5625 180.476562 179.449219 180.136719 Z M 176.730469 182.160156 C 176.386719 181.933594 175.933594 181.261719 176.957031 180.476562 C 177.863281 181.484375 177.070312 181.933594 176.730469 182.160156 C 176.730469 182.160156 176.730469 182.160156 176.613281 182.160156 Z M 178.203125 181.261719 C 178.203125 181.261719 178.203125 181.261719 178.203125 181.148438 C 178.429688 180.8125 178.996094 180.25 179.789062 181.148438 C 178.996094 182.046875 178.429688 181.484375 178.203125 181.261719 Z M 176.957031 182.382812 C 176.957031 182.382812 176.957031 182.382812 176.957031 182.273438 C 177.070312 181.933594 177.636719 181.261719 178.65625 182.160156 C 177.976562 183.171875 177.296875 182.722656 176.957031 182.382812 Z M 175.59375 183.507812 C 175.253906 183.285156 174.574219 182.722656 175.59375 181.824219 C 176.613281 182.722656 176.046875 183.394531 175.707031 183.507812 C 175.707031 183.507812 175.707031 183.507812 175.59375 183.507812 Z M 175.933594 183.621094 C 175.933594 183.621094 175.933594 183.621094 175.933594 183.507812 C 176.046875 183.171875 176.5 182.382812 177.636719 183.058594 C 177.070312 184.292969 176.273438 183.84375 175.933594 183.621094 Z M 174.6875 184.855469 C 174.347656 184.632812 173.554688 184.070312 174.574219 183.058594 C 175.707031 183.84375 175.140625 184.632812 174.800781 184.855469 C 174.800781 184.855469 174.6875 184.855469 174.6875 184.855469 Z M 175.027344 184.96875 C 175.027344 184.96875 175.027344 184.96875 175.027344 184.855469 C 175.140625 184.40625 175.480469 183.621094 176.730469 184.292969 C 176.160156 185.53125 175.367188 185.195312 175.027344 184.96875 Z M 173.894531 186.542969 C 173.441406 186.429688 172.644531 185.867188 173.554688 184.742188 C 174.800781 185.417969 174.347656 186.316406 174.007812 186.542969 C 174.007812 186.542969 174.007812 186.542969 173.894531 186.542969 Z M 174.347656 186.652344 C 174.347656 186.652344 174.347656 186.652344 174.347656 186.542969 C 174.347656 186.09375 174.6875 185.195312 176.046875 185.753906 C 175.707031 187.101562 174.800781 186.878906 174.347656 186.652344 Z M 173.441406 188.226562 C 172.984375 188.113281 172.078125 187.664062 172.871094 186.429688 C 174.234375 186.992188 173.894531 187.890625 173.554688 188.226562 C 173.554688 188.226562 173.441406 188.226562 173.441406 188.226562 Z M 172.871094 196.542969 C 174.574219 196.089844 174.914062 197.214844 174.800781 197.777344 C 174.800781 197.777344 174.800781 197.777344 174.6875 197.890625 C 174.234375 198.113281 172.984375 198.339844 172.757812 196.542969 Z M 201.226562 193.84375 C 200.65625 193.84375 199.636719 193.507812 200.089844 191.933594 C 201.792969 192.160156 201.453125 193.28125 201.226562 193.730469 C 201.226562 193.730469 201.113281 193.730469 201.113281 193.730469 Z M 201.113281 195.867188 C 201 195.304688 201.226562 194.183594 202.925781 194.519531 C 202.8125 196.203125 201.679688 196.089844 201.226562 195.980469 C 201.226562 195.980469 201.226562 195.980469 201.113281 195.867188 Z M 222.773438 204.40625 C 222.886719 204.292969 223.113281 204.179688 223.226562 204.179688 L 223.113281 203.957031 C 222.546875 202.496094 224.699219 200.25 226.402344 201.710938 C 229.691406 204.628906 225.15625 208.898438 220.503906 207.777344 C 220.164062 207.777344 219.257812 208.449219 217.214844 208.113281 C 214.492188 210.472656 208.710938 206.203125 206.554688 204.742188 L 203.039062 202.269531 C 202.472656 202.945312 202.019531 204.070312 202.472656 204.855469 C 204.171875 204.292969 204.628906 206.089844 202.8125 205.753906 L 202.246094 205.417969 C 201.90625 205.527344 201.113281 206.089844 201.113281 205.640625 C 201.113281 205.640625 201.113281 205.527344 201.226562 205.527344 L 202.019531 205.078125 C 201.566406 204.070312 201.90625 202.832031 202.585938 202.046875 C 200.203125 200.585938 197.710938 199.6875 194.875 200.472656 C 189.996094 201.933594 190.335938 208.789062 196.347656 209.125 C 199.976562 209.347656 201.113281 205.980469 199.183594 204.292969 C 197.367188 202.71875 194.761719 204.179688 195.441406 206.539062 C 195.894531 208 197.027344 207.328125 196.914062 208 C 196.800781 208.449219 194.195312 207.664062 195.101562 204.855469 C 195.554688 203.394531 197.367188 202.832031 198.730469 203.507812 C 202.019531 205.078125 200.886719 210.023438 195.894531 209.574219 C 189.882812 209.011719 189.089844 200.699219 196.007812 199.800781 C 198.503906 199.460938 200.886719 200.472656 202.925781 201.710938 L 204.742188 200.585938 C 204.058594 200.136719 203.265625 199.6875 202.472656 199.460938 C 200.429688 198.902344 199.976562 200.023438 199.636719 199.6875 C 199.410156 199.238281 201.226562 198.226562 204.058594 199.6875 L 205.421875 200.472656 C 205.648438 200.472656 207.007812 200.023438 209.84375 201.371094 C 212.679688 202.71875 214.835938 205.304688 217.667969 206.652344 C 218.804688 202.945312 215.402344 203.394531 215.742188 204.628906 L 216.421875 204.742188 L 216.421875 204.40625 L 216.648438 204.40625 C 217.441406 205.304688 215.402344 205.867188 215.402344 204.628906 C 215.289062 203.167969 218.351562 202.496094 218.464844 205.304688 C 218.464844 205.867188 218.351562 206.316406 218.238281 206.878906 L 220.390625 207.550781 C 220.84375 207.4375 221.980469 206.316406 222.09375 206.878906 C 222.09375 206.878906 222.09375 206.988281 222.09375 206.988281 L 221.296875 207.664062 C 223.453125 207.777344 225.722656 207.214844 226.515625 204.96875 C 227.195312 202.832031 224.8125 201.261719 223.792969 203.058594 L 223.679688 204.292969 C 224.585938 203.621094 225.835938 204.40625 225.15625 205.191406 C 224.699219 205.640625 224.019531 205.191406 223.566406 204.855469 C 222.546875 205.640625 222.546875 204.855469 222.886719 204.855469 Z M 152.003906 204.179688 C 153.140625 204.855469 152.460938 205.078125 151.664062 204.519531 C 150.191406 205.753906 149.398438 204.179688 150.304688 203.730469 L 151.550781 203.84375 C 152.230469 202.496094 149.851562 200.921875 148.941406 202.71875 C 147.128906 206.203125 151.777344 206.878906 153.933594 207.328125 L 153.140625 206.652344 L 153.367188 206.429688 L 154.839844 207.214844 L 156.996094 206.539062 C 155.859375 203.394531 158.46875 202.269531 159.492188 203.507812 C 160.511719 204.628906 158.695312 205.640625 158.242188 204.742188 C 158.015625 204.070312 158.921875 203.84375 158.695312 204.519531 C 159.605469 205.191406 159.605469 203.394531 158.242188 203.507812 C 156.996094 203.621094 157.109375 205.417969 157.449219 206.429688 C 160.285156 205.078125 162.4375 202.496094 165.273438 201.148438 C 168.109375 199.800781 169.46875 200.25 169.695312 200.25 C 170.039062 200.25 172.984375 197.777344 175.367188 199.238281 L 175.140625 199.574219 C 173.441406 198.675781 171.738281 199.460938 170.378906 200.359375 L 172.191406 201.484375 C 175.027344 199.800781 178.542969 198.675781 181.605469 200.472656 C 185.800781 202.945312 184.214844 209.011719 179.222656 209.460938 C 174.234375 209.910156 173.097656 204.96875 176.386719 203.394531 C 177.636719 202.832031 179.222656 203.167969 179.902344 204.40625 C 180.472656 205.640625 180.246094 207.886719 178.429688 208 L 178.429688 207.550781 C 180.359375 207.4375 180.359375 203.621094 177.636719 203.621094 C 177.070312 203.621094 176.386719 203.84375 175.933594 204.292969 C 174.007812 205.980469 175.140625 209.347656 178.769531 209.125 C 184.78125 208.789062 185.121094 201.933594 180.246094 200.472656 C 177.523438 199.6875 174.914062 200.585938 172.53125 202.046875 C 173.214844 202.832031 173.554688 204.070312 173.097656 205.078125 L 173.894531 205.527344 L 173.78125 205.867188 L 172.871094 205.527344 C 172.078125 206.316406 170.605469 205.527344 171.398438 204.96875 L 172.757812 204.855469 C 173.214844 204.070312 172.757812 202.945312 172.191406 202.269531 C 168.5625 204.519531 163.121094 209.796875 159.148438 208.789062 C 158.695312 208.675781 158.355469 208.449219 158.015625 208.226562 C 155.976562 208.675781 155.066406 207.886719 154.726562 207.886719 C 142.59375 207.886719 149.851562 198.226562 152.003906 202.71875 C 152.230469 203.167969 152.230469 203.621094 152.117188 204.070312 L 152.003906 204.292969 Z M 173.894531 188.339844 C 173.894531 187.890625 174.121094 186.878906 175.59375 187.328125 C 175.367188 188.789062 174.460938 188.675781 174.007812 188.453125 C 174.007812 188.453125 174.007812 188.453125 173.894531 188.339844 Z M 186.140625 205.867188 C 186.367188 204.628906 187.164062 204.742188 187.503906 204.96875 C 187.84375 204.742188 188.75 204.628906 188.863281 205.867188 C 187.957031 206.089844 187.617188 205.753906 187.503906 205.417969 C 187.390625 205.753906 187.050781 206.203125 186.140625 205.867188 Z M 184.894531 204.742188 C 185.347656 204.742188 185.800781 204.96875 186.027344 205.078125 L 186.027344 205.191406 C 185.914062 205.640625 185.574219 206.539062 184.554688 206.429688 C 184.78125 205.867188 184.894531 205.304688 185.007812 204.628906 Z M 198.164062 198.902344 C 197.824219 198.5625 197.710938 197.890625 198.503906 196.992188 C 199.296875 197.441406 199.523438 198 199.410156 198.449219 C 199.410156 198.902344 199.070312 199.125 198.84375 199.351562 C 198.84375 199.351562 198.730469 199.351562 198.730469 199.351562 C 198.503906 199.238281 198.277344 199.125 198.050781 198.902344 Z M 188.976562 178.789062 C 189.089844 177.777344 189.65625 177.890625 189.996094 178.003906 C 189.996094 178.339844 189.882812 178.902344 188.976562 178.675781 Z M 189.996094 177.777344 C 189.769531 177.890625 189.089844 177.890625 189.089844 176.992188 C 189.996094 176.878906 190.109375 177.441406 190.109375 177.777344 Z M 191.472656 178.003906 C 191.132812 178.117188 190.449219 178.117188 190.566406 177.105469 C 191.585938 176.992188 191.585938 177.664062 191.585938 178.003906 Z M 190.335938 178.902344 C 190.449219 177.890625 191.132812 178.003906 191.472656 178.226562 C 191.472656 178.226562 191.472656 178.226562 191.472656 178.339844 C 191.472656 178.675781 191.359375 179.238281 190.335938 179.015625 Z M 191.585938 179.238281 C 191.8125 178.226562 192.605469 178.453125 192.832031 178.566406 C 192.832031 178.566406 192.832031 178.566406 192.832031 178.675781 C 192.832031 179.015625 192.492188 179.6875 191.585938 179.238281 Z M 192.945312 178.453125 C 192.605469 178.453125 191.925781 178.453125 192.039062 177.328125 C 193.058594 177.328125 193.058594 178.003906 192.945312 178.339844 Z M 194.308594 179.125 C 193.96875 179.125 193.171875 178.902344 193.625 177.890625 C 194.761719 178.117188 194.535156 178.789062 194.421875 179.125 Z M 192.71875 179.6875 C 193.171875 178.675781 193.851562 179.015625 194.082031 179.238281 C 194.082031 179.238281 194.082031 179.238281 194.082031 179.351562 C 193.96875 179.6875 193.625 180.363281 192.71875 179.6875 Z M 194.082031 180.363281 C 194.648438 179.351562 195.328125 179.6875 195.554688 180.023438 C 195.554688 180.023438 195.554688 180.023438 195.554688 180.136719 C 195.441406 180.476562 194.988281 181.148438 194.082031 180.476562 Z M 195.667969 179.800781 C 195.328125 179.800781 194.535156 179.574219 194.988281 178.453125 C 196.121094 178.675781 195.894531 179.464844 195.667969 179.800781 C 195.667969 179.800781 195.667969 179.800781 195.554688 179.800781 Z M 196.914062 180.8125 C 196.574219 180.699219 195.894531 180.25 196.574219 179.238281 C 197.597656 179.800781 197.253906 180.476562 197.027344 180.8125 C 197.027344 180.8125 197.027344 180.8125 196.914062 180.8125 Z M 195.101562 180.925781 C 195.894531 180.023438 196.574219 180.585938 196.6875 180.925781 C 196.6875 180.925781 196.6875 180.925781 196.6875 181.035156 C 196.460938 181.375 195.894531 181.933594 195.101562 180.925781 Z M 197.9375 182.160156 C 197.710938 182.496094 197.027344 182.945312 196.234375 181.933594 C 197.140625 181.035156 197.710938 181.710938 197.9375 182.046875 C 197.9375 182.046875 197.9375 182.046875 197.9375 182.160156 Z M 198.164062 181.933594 C 197.824219 181.824219 197.140625 181.261719 197.9375 180.25 C 198.957031 180.925781 198.503906 181.597656 198.164062 181.933594 C 198.164062 181.933594 198.164062 181.933594 198.050781 181.933594 Z M 198.957031 183.394531 C 198.617188 183.621094 197.824219 184.070312 197.253906 182.835938 C 198.390625 182.046875 198.84375 182.835938 198.957031 183.285156 C 198.957031 183.285156 198.957031 183.285156 198.957031 183.394531 Z M 199.183594 183.285156 C 198.84375 183.058594 198.277344 182.382812 199.296875 181.597656 C 200.316406 182.496094 199.636719 183.171875 199.296875 183.285156 C 199.296875 183.285156 199.296875 183.285156 199.183594 183.285156 Z M 199.863281 184.855469 C 199.523438 185.082031 198.730469 185.53125 198.164062 184.183594 C 199.410156 183.507812 199.75 184.292969 199.863281 184.742188 C 199.863281 184.742188 199.863281 184.742188 199.863281 184.855469 Z M 200.089844 184.742188 C 199.75 184.519531 199.183594 183.734375 200.316406 182.945312 C 201.226562 183.957031 200.542969 184.519531 200.203125 184.742188 C 200.203125 184.742188 200.203125 184.742188 200.089844 184.742188 Z M 200.542969 186.542969 C 200.203125 186.765625 199.183594 186.992188 198.84375 185.644531 C 200.203125 185.082031 200.542969 185.980469 200.542969 186.429688 C 200.542969 186.429688 200.542969 186.429688 200.542969 186.542969 Z M 200.886719 186.429688 C 200.542969 186.09375 200.089844 185.304688 201.339844 184.632812 C 202.132812 185.753906 201.339844 186.316406 201 186.429688 C 201 186.429688 200.886719 186.429688 200.886719 186.429688 Z M 201.113281 188.226562 C 200.65625 188.453125 199.75 188.5625 199.523438 187.101562 C 201 186.652344 201.226562 187.664062 201.226562 188.113281 C 201.226562 188.113281 201.226562 188.113281 201.113281 188.226562 Z M 201.453125 188.113281 C 201.113281 187.777344 200.769531 186.878906 202.132812 186.316406 C 202.8125 187.554688 202.019531 188.113281 201.566406 188.113281 C 201.566406 188.113281 201.453125 188.113281 201.453125 188.113281 Z M 201.339844 190.023438 C 200.886719 190.136719 199.863281 190.136719 199.863281 188.5625 C 201.453125 188.339844 201.453125 189.460938 201.339844 189.914062 C 201.339844 189.914062 201.339844 189.914062 201.226562 190.023438 Z M 201.679688 190.023438 C 201.453125 189.574219 201.113281 188.5625 202.699219 188.226562 C 203.265625 189.6875 202.246094 190.023438 201.792969 190.023438 C 201.792969 190.023438 201.679688 190.023438 201.679688 190.023438 Z M 201.339844 191.820312 C 200.886719 191.933594 199.75 191.820312 199.976562 190.25 C 201.566406 190.25 201.566406 191.371094 201.339844 191.820312 C 201.339844 191.820312 201.226562 191.820312 201.226562 191.820312 Z M 201.679688 191.820312 C 201.453125 191.371094 201.339844 190.25 202.925781 190.136719 C 203.265625 191.710938 202.246094 191.933594 201.792969 191.820312 C 201.792969 191.820312 201.679688 191.820312 201.679688 191.820312 Z M 201.566406 193.84375 C 201.566406 193.84375 201.566406 193.84375 201.453125 193.730469 C 201.339844 193.28125 201.339844 192.160156 203.039062 192.273438 C 203.152344 193.957031 202.019531 193.957031 201.566406 193.84375 Z M 200.542969 195.53125 C 199.976562 195.417969 198.957031 194.96875 199.636719 193.507812 C 201.339844 193.957031 200.886719 195.082031 200.542969 195.53125 C 200.542969 195.53125 200.429688 195.53125 200.429688 195.53125 Z M 199.636719 197.328125 C 199.070312 197.214844 198.050781 196.652344 198.957031 195.191406 C 200.65625 195.867188 200.089844 196.992188 199.75 197.328125 C 199.75 197.328125 199.636719 197.328125 199.636719 197.328125 Z M 200.089844 197.550781 C 200.089844 197.550781 200.089844 197.550781 199.976562 197.441406 C 199.976562 196.878906 200.203125 195.753906 201.90625 196.203125 C 201.679688 197.890625 200.542969 197.777344 199.976562 197.550781 Z M 188.863281 204.179688 C 188.636719 203.621094 188.523438 202.269531 190.449219 202.046875 C 190.222656 202.609375 190.109375 203.167969 189.996094 203.730469 C 189.996094 203.84375 189.996094 203.957031 189.996094 204.070312 C 189.65625 204.292969 189.203125 204.292969 188.863281 204.292969 L 188.75 204.179688 Z M 188.863281 204.179688 " fill-opacity="1" fill-rule="nonzero"/></g><path stroke-linecap="butt" transform="matrix(0.75, 0, 0, 0.75, 22.359664, 208.240635)" fill="none" stroke-linejoin="miter" d="M -0.000385002 0.50207 L 159.999626 0.50207 " stroke="#9f890d" stroke-width="1" stroke-opacity="1" stroke-miterlimit="4"/><path stroke-linecap="butt" transform="matrix(0.75, 0, 0, 0.75, 234.112415, 207.490635)" fill="none" stroke-linejoin="miter" d="M 0.00115536 0.50207 L 160.001166 0.50207 " stroke="#9f890d" stroke-width="1" stroke-opacity="1" stroke-miterlimit="4"/></svg>